/* XPM */
static char *collect[] = {
/* columns rows colors chars-per-pixel */
"64 64 159 2 ",
"   c #603813",
".  c #613B1A",
"X  c #6B4C39",
"o  c #6D503E",
"O  c #6F5241",
"+  c #735A4B",
"@  c #775F52",
"#  c #796256",
"$  c #7B655A",
"%  c #7D695E",
"&  c #7F6C62",
"*  c #985C20",
"=  c #AC6926",
"-  c #B66F28",
";  c #B26C27",
":  c #BC732A",
">  c #A96C39",
",  c #CD7E2E",
"<  c #C3772B",
"1  c #996946",
"2  c #B37749",
"3  c #AB7754",
"4  c #B17B54",
"5  c #816E65",
"6  c #86746B",
"7  c #957B6D",
"8  c #8B7B73",
"9  c #D1802F",
"0  c #CF8136",
"q  c #CB813F",
"w  c #D68430",
"e  c #D88531",
"r  c #E48C34",
"t  c #E88F35",
"y  c #EC9136",
"u  c #F19437",
"i  c #F89939",
"p  c #E6AD3E",
"a  c #F9A43D",
"s  c #FAAC3F",
"d  c #BD8256",
"f  c #8F817B",
"g  c #92837C",
"h  c #AD8873",
"j  c #D18643",
"k  c #C0875F",
"l  c #D18B55",
"z  c #DBB25E",
"x  c #E9BA42",
"c  c #FBB241",
"v  c #FCBA43",
"b  c #CF8F61",
"n  c #C38D69",
"m  c #D39161",
"M  c #D8986C",
"N  c #CB9674",
"B  c #CD9B7A",
"V  c #D49B76",
"C  c #F9B26B",
"Z  c #E0A177",
"A  c #F7AC75",
"S  c #F7B07E",
"D  c #F7C646",
"F  c #FEC446",
"G  c #FEC847",
"H  c #FFCD49",
"J  c #FFCF5B",
"K  c #FED064",
"L  c #FFD269",
"P  c #FDCF75",
"I  c #FFD474",
"U  c #FED57D",
"Y  c #978A84",
"T  c #9A8E88",
"R  c #9D928E",
"E  c #BA9887",
"W  c #A09590",
"Q  c #A39A95",
"!  c #A79E99",
"~  c #A7A09D",
"^  c #AAA19E",
"/  c #ADA5A2",
"(  c #AFAAA7",
")  c #B1A9A6",
"_  c #B3ADAA",
"`  c #B4B3B2",
"'  c #BAB5B2",
"]  c #BDB9B7",
"[  c #BEBAB9",
"{  c #CF9E81",
"}  c #D3A58A",
"|  c #DFBD80",
" . c #C2A595",
".. c #C4A99B",
"X. c #CEAC9A",
"o. c #DCB39C",
"O. c #D5B296",
"+. c #F6BC98",
"@. c #C9AFA2",
"#. c #C3ACA1",
"$. c #C3B0A6",
"%. c #CFB8AC",
"&. c #C4B5AE",
"*. c #D0B9AE",
"=. c #C0B9B7",
"-. c #CEBAB0",
";. c #C2BDBB",
":. c #CABEB8",
">. c #D2BCB0",
",. c #E3BEA9",
"<. c #ECC881",
"1. c #FAC982",
"2. c #FCD484",
"3. c #FFD887",
"4. c #FBD68B",
"5. c #FFD88A",
"6. c #F7C79F",
"7. c #FED993",
"8. c #FEDC9C",
"9. c #F7D594",
"0. c #C5C0BE",
"q. c #D3C5B2",
"w. c #D8CDBC",
"e. c #D8C3B9",
"r. c #F6C3A6",
"t. c #F5D7A1",
"y. c #FDDDA3",
"u. c #FADDAA",
"i. c #F9DFB2",
"p. c #F0DCBC",
"a. c #F2DBB6",
"s. c #FFE1AA",
"d. c #FFE3B1",
"f. c #FFE7BE",
"g. c #C5C3C2",
"h. c #C9C5C4",
"j. c #CBC8C7",
"k. c #CCCCCC",
"l. c #D1CECD",
"z. c #D7D1C7",
"x. c #D9D1C9",
"c. c #D4D4D4",
"v. c #D8D6D5",
"b. c #DCDBDB",
"n. c #EDDFCA",
"m. c #E0DEDD",
"M. c #F7E4C5",
"N. c #F7E6CA",
"B. c #E9E3DC",
"V. c #E9E1D6",
"C. c #F5EBDD",
"Z. c #E5E5E5",
"A. c #E8E7E7",
"S. c #ECECEC",
"D. c #F4EDE4",
"F. c #F2F1EF",
"G. c #F2F2F2",
"H. c #FCFCFC",
"J. c None",
/* pixels */
"J.J.J.J.J.J.J.J.J.J.J.J.J.J.J.J.J.J.J.J.J.J.J.J.J.J.J.J.J.J.J.J.J.J.J.J.J.J.J.J.J.J.J.J.J.J.J.J.J.J.J.J.J.J.J.J.J.J.J.J.J.J.J.J.",
"J.J.J.J.J.J.J.J.J.J.J.J.J.J.J.J.J.J.J.J.J.J.J.J.J.J.J.J.J.J.J.J.J.J.J.J.J.J.J.J.J.J.J.J.J.J.J.J.J.J.J.J.J.J.J.J.J.J.J.J.J.J.J.J.",
"J.J.J.J.J.J.J.J.J.J.J.J.J.J.J.J.J.J.J.J.J.J.J.J.J.J.J.J.J.J.J.J.J.J.J.J.J.J.J.J.J.J.J.J.J.J.J.J.J.J.J.J.J.J.J.J.J.J.J.J.J.J.J.J.",
"J.J.J.J.J.J.J.J.J.J.J.J.J.J.J.J.J.J.J.J.J.J.J.J.J.J.J.J.J.J.J.J.J.J.J.J.J.J.J.J.J.J.J.J.J.J.J.J.J.J.J.J.J.J.J.J.J.J.J.J.J.J.J.J.",
"J.J.J.J.J.J.J.J.J.J.J.J.J.J.J.J.J.J.J.J.J.J.J.J.J.J.J.J.J.J.J.J.J.J.J.J.J.J.J.J.J.J.J.J.J.J.J.J.J.J.J.J.J.J.J.J.J.J.J.J.J.J.J.J.",
"J.J.J.J.J.J.J.J.J.J.J.J.J.J.J.J.J.J.J.J.J.J.J.J.J.J.J.J.J.J.J.J.J.J.J.J.J.J.J.J.J.J.J.J.J.J.J.J.J.J.J.J.J.J.J.J.J.J.J.J.J.J.J.J.",
"J.J.J.J.J.J.J.J.J.J.J.J.J.J.J.J.J.J.J.J.J.J.J.J.J.J.J.J.J.J.J.J.J.J.J.J.J.J.J.J.J.J.J.J.J.J.J.J.J.J.J.J.J.J.J.J.J.J.J.J.J.J.J.J.",
"J.J.J.J.J.J.J.J.J.J.J.J.J.J.J.J.J.J.J.J.J.J.J.J.J.J.J.J.J.J.J.J.J.J.J.J.J.J.J.J.J.J.J.J.J.J.J.J.J.J.J.J.J.J.J.J.J.J.J.J.J.J.J.J.",
"J.J.J.J.J.J.J.J.J.J.J.J.J.J.J.J.J.J.J.J.J.J.J.J.J.J.J.J.J.5 8 g # J.J.J.J.J.J.J.J.J.J.J.J.J.J.J.J.J.J.J.J.J.J.J.J.J.J.J.J.J.J.J.",
"J.J.J.J.J.J.J.J.J.J.J.J.J.J.J.J.J.J.J.J.J.J.J.J.J.J.J.6 m.H.H.H.H.b.^   J.J.J.J.J.J.J.J.J.J.J.J.J.J.J.J.J.J.J.J.J.J.J.J.J.J.J.J.",
"J.J.J.J.J.J.J.J.J.J.J.J.J.J.J.J.J.J.J.J.J.J.J.J.J.J.+ A.H.H.G.G.H.H.H.Z.T J.J.J.J.J.J.J.J.J.J.J.J.J.J.J.J.J.J.J.J.J.J.J.J.J.J.J.",
"J.J.J.J.J.J.J.J.J.J.J.J.J.J.J.J.J.J.J.J.J.J.J.J.J.J.l.H.H.G.F.G.G.G.H.H.G.j.J.J.J.J.+ Y / / ( Q $ J.J.J.J.J.J.J.J.J.J.J.J.J.J.J.",
"J.J.J.J.J.J.J.J.J.J.J.J.J.J.J.J.J.J.J.J.J.J.! ] v.G.G.H.G.G.G.G.G.G.G.H.H.G.G.m.m.F.G.H.H.H.H.G.G.:.O J.J.J.J.J.J.J.J.J.J.J.J.J.",
"J.J.J.J.J.J.J.J.J.J.J.J.J.J.J.J.J.J.J.J.J.Q G.G.G.G.G.G.G.G.G.G.G.G.G.G.G.G.G.G.H.H.H.H.H.H.G.F.G.G.l.  J.J.J.J.J.J.J.J.J.J.J.J.",
"J.J.J.J.J.J.J.J.J.J.J.J.J.J.J.J.J.J.J.J.J.g.G.G.G.S.S.Z.Z.S.G.G.G.G.G.G.G.G.G.G.G.G.G.G.G.G.F.G.G.G.G.& J.J.J.J.J.J.J.J.J.J.J.J.",
"J.J.J.J.J.J.J.J.J.J.J.J.J.J.J.J.J.J.J.J.J._ v.v.k.k.k.k.k.k.c.F.G.G.G.G.G.G.G.G.G.G.G.G.F.G.G.G.G.G.G.8 J.J.J.J.J.J.J.J.J.J.J.J.",
"J.J.J.J.J.J.J.J.J.J.J.J.J.J.J.J.J.J.J.J.J.6 k.k.k.k.k.k.k.k.k.k.Z.G.S.v.k.k.S.G.G.G.G.G.G.G.G.G.G.F.Z.$ J.J.J.J.J.J.J.J.J.J.J.J.",
"J.J.J.J.J.J.J.J.J.J.J.J.J.J.J.J.J.J.J.J.J.J.f ` h.;.[ / R E N  .j.k.k.k.k.k.c.G.G.G.G.G.G.G.G.G.G.Z.( J.J.J.J.J.J.J.J.J.J.J.J.J.",
"J.J.J.J.J.J.J.J.J.J.J.J.J.J.J.J.J.J.J.J.J.J.J.6 * ; , r i i i y 8 k.k.( j ( k.k.Z.G.G.G.S.Z.S.A.c.! X J.J.J.J.J.J.J.J.J.J.J.J.J.",
"J.J.J.J.J.J.J.J.J.J.J.J.J.J.J.J.J.J.J.J.J.J.J.) M i i c F c i i e R ( : i 3 k.k.k.m.G.G.k.k.k.[ g 6 J.J.J.J.J.J.J.J.J.J.J.J.J.J.",
"J.J.J.J.J.J.J.J.J.J.J.J.J.J.J.J.J.J.J.J.J.J.J.Y } i i F H H c i i : > a i ; g.[ ' v.G.Z.k.k.h.2 o.8 J.J.J.J.J.J.J.J.J.J.J.J.J.J.",
"J.J.J.J.J.J.J.J.J.J.J.J.J.J.J.J.J.g [ v.Z.Z.Z.;.@.i i F H H H i i i c H c , ( 4 d k.v.k.;.g._ t ,.6 J.J.J.J.J.J.J.J.J.J.J.J.J.J.",
"J.J.J.J.J.J.J.J.J.J.J.J.J.J.J.J.' F.G.G.Z.v.b.0.=.i i F H H H F c F H H F y O e ; k.k.h.j b n i e.  J.J.J.J.J.J.J.J.J.J.J.J.J.J.",
"J.J.J.J.J.J.J.J.J.J.J.J.J.J.J.=.G.A.k.k.k.k.k.[ ] y i F y.H H H H H H H H i : i : g.k.Q u i i i *.  J.J.J.J.J.J.J.J.J.J.J.J.J.J.",
"J.J.J.J.J.J.J.J.J.J.J.J.J.J.Q G.A.k.[ 8     + f j.r i F N.H H H H H H 7.3.F 2.i , ` k.1 i i i i $.  J.J.J.J.J.J.J.J.J.J.J.J.J.J.",
"J.J.J.J.J.J.J.J.J.J.J.J.J.J.c.A.v.( . J.J.J.J.J.;., i v C.H H H H H H H 3.J C.C y 8 Q e i i i i ) J.J.J.J.J.J.J.J.J.J.J.J.J.J.J.",
"J.J.J.J.J.J.J.J.J.J.J.J.J.6 Z.Z.[   J.J.J.J.J.J.j.V i v C.2.H H H H H H 7.J C.1.i , = i a c i i ! J.J.J.J.J.J.J.J.J.J.J.J.J.J.J.",
"J.J.J.J.J.J.J.J.J.J.J.J.J./ Z.Z.& J.J.J.J.J.J.J.j.} i v D.4.H H H H H d.I H 2.K c i i s F v i i ! J.J.J.J.J.J.J.J.J.J.J.J.J.J.J.",
"J.J.J.J.J.J.J.J.J.J.J.J.J.h.Z.j.  J.J.J.J.J.J.J.0...i c C.u.H H H H F H H F H H H 2.P H H F i r ) J.J.J.J.J.J.J.J.J.J.J.J.J.J.J.",
"J.J.J.J.J.J.J.J.J.J.J.J.  b.Z.( J.J.J.J.J.J.J.J.J.*.i c C.u.H H H H H y.I y.H H H u.9.H H F i r =.J.J.J.J.J.J.J.J.J.J.J.J.J.J.J.",
"J.J.J.J.J.J.J.J.J.J.J.J.+ Z.Z.g J.J.J.J.J.J.J.J.J.:.i c C.u.H H H H F L H 3.H H H M.u.H H F i r [ J.J.J.J.J.J.J.J.J.J.J.J.J.J.J.",
"J.J.J.J.J.J.J.J.J.J.J.J.g Z.Z.# J.J.J.J.J.J.J.J.J.=.i s C.M.H H H H H G 3.5.H H G y.U H H F i r ` J.J.J.J.J.J.J.J.J.J.J.J.J.J.J.",
"J.J.J.J.J.J.J.J.J.J.J.J.8 Z.A.  J.J.J.J.J.J.J.J.J.0.i a D.N.H H H H H H J J H H H H H H H G i w ! J.J.J.J.J.J.J.J.J.J.J.J.J.J.J.",
"J.J.J.J.J.J.J.J.J.J.J.J.Q A.Z.  J.J.J.J.J.J.J.J.J.-.i a G.N.H H H H H F d.H H H H H H H H F i j ! J.J.J.J.J.J.J.J.J.J.J.J.J.J.J.",
"J.J.J.J.J.J.J.J.J.J.J.J.f Z.A.  J.J.J.J.J.J.J.J.J...i a G.M.H H H H H H J H H H H H H H H F i Z ! J.J.J.J.J.J.J.J.J.J.J.J.J.J.J.",
"J.J.J.J.J.J.J.J.J.J.J.J.8 A.A.  J.J.J.J.J.J.J.J.J...i u G.d.H H H H H H H F H H H H H H H F i Z ! J.J.J.J.J.J.J.J.J.J.J.J.J.J.J.",
"J.J.J.J.J.J.J.J.J.J.J.J.+ Z.Z.6 J.J.J.J.J.J.J.J.J.E i i G.u.D H H H H F f.H H H H H H H H F i Z ! J.J.J.J.J.J.J.J.J.J.J.J.J.J.J.",
"J.J.J.J.J.J.J.J.J.J.J.J.  k.Z.R J.J.J.J.J.J.J.J.J.h i i G.s.H H H H H H H F H H H H H H H v i B ! J.J.J.J.J.J.J.J.J.J.J.J.J.J.J.",
"J.J.J.J.J.J.J.J.J.J.J.J.J.` m.` J.J.J.J.J.J.J.J.J.h i i G.9.H H H H H y.s.K H H H H H H H c i N ! J.J.J.J.J.J.J.J.J.J.J.J.J.J.J.",
"J.J.J.J.J.J.J.J.J.J.J.J.J.f k.v.  J.J.J.J.J.J.J.J. .i A G.4.H H H H H U K H H H H H H H H s i B ! J.J.J.J.J.J.J.J.J.J.J.J.J.J.J.",
"J.J.J.J.J.J.J.J.J.J.J.J.J.X j.b.R J.J.J.J.J.J.J.J.#.i S G.K H H H H H H I 8.H H H H H H H a i o.! J.J.J.J.J.J.J.J.J.J.J.J.J.J.J.",
"J.J.J.J.J.J.J.J.J.J.J.J.J.J.R k.j.J.J.J.J.J.J.J.J.X.i S F.H H H H H H H I H H H H H H H H i i o.! J.J.J.J.J.J.J.J.J.J.J.J.J.J.J.",
"J.J.J.J.J.J.J.J.J.J.J.J.J.J.X ;.v.Q J.J.J.J.J.J.R N i S C.H H H H H J I 8.H H H H H H H F i i o.g J.J.J.J.J.J.J.J.J.J.J.J.J.J.J.",
"J.J.J.J.J.J.J.J.J.J.J.J.J.J.J.5 k.b.6 J.J.J.J.J.g m i +.M.P H H H H L 8.H H H H H H H H s i i %.8 J.J.J.J.J.J.J.J.J.J.J.J.J.J.J.",
"J.J.J.J.J.J.J.J.J.J.J.J.J.J.J.J.Y k.v.8 J.J.J.J._ 9 i r.s.q.D H H H H F H H H H H H H H c i i O.g J.J.J.J.J.J.J.J.J.J.J.J.J.J.J.",
"J.J.J.J.J.J.J.J.J.J.J.J.J.J.J.J.J.f k.S.j.J.J.g.^ 9 i 6.L l.x H H H H H L H H H H H H H i i i ... J.J.J.J.J.J.J.J.J.J.J.J.J.J.J.",
"J.J.J.J.J.J.J.J.J.J.J.J.J.J.J.J.J.J.5 k.S.G.G.S.^ t i D D Z.z H H H H H s.L H H H H H F i i i ..  J.J.J.J.J.J.J.J.J.J.J.J.J.J.J.",
"J.J.J.J.J.J.J.J.J.J.J.J.J.J.J.J.J.J.J.X ^ c.b.l.^ e i s p A.S H H H H H H H H H H H H c i i i ..  J.J.J.J.J.J.J.J.J.J.J.J.J.J.J.",
"J.J.J.J.J.J.J.J.J.J.J.J.J.J.J.J.J.J.J.J.J.& ` [ ' r i i m G.O.D G H H H H H H H H H F i i i i ..o J.J.J.J.J.J.J.J.J.J.J.J.J.J.J.",
"J.J.J.J.J.J.J.J.J.J.J.J.J.J.J.J.J.J.J.J.J.J.J.. c.k r u X.G.%.i i a a a a a a a i i i i i i u _ 8 J.J.J.J.J.J.J.J.J.J.J.J.J.J.J.",
"J.J.J.J.J.J.J.J.J.J.J.J.J.J.J.J.J.J.J.J.J.J.J.J.k.k.0.` ' Z.] B 0 9 r r t i i u r r w l B @.g.b.! J.J.J.J.J.J.J.J.J.J.J.J.J.J.J.",
"J.J.J.J.J.J.J.J.J.J.J.J.J.J.J.J.J.J.J.J.J.J.J.J.] ` ` ` Q k.( l.v.b.k.j.c.j.l.k.j.g.l.j.[ ` ` j.=.J.J.J.J.J.J.J.J.J.J.J.J.J.J.J.",
"J.J.J.J.J.J.J.J.J.J.J.J.J.J.J.J.J.J.J.J.J.J.J.J./ b.b.A.Z.0.l.Z.Z.Z.Z.Z.V.w.q.w.z.z.c.v.b.b.m.A.' J.J.J.J.J.J.J.J.J.J.J.J.J.J.J.",
"J.J.J.J.J.J.J.J.J.J.J.J.J.J.J.J.J.J.J.J.J.J.J.J.J.! l.Z.Z.Z.p.4.H H H H H H H H G H 9.Z.A.Z.A.v.& J.J.J.J.J.J.J.J.J.J.J.J.J.J.J.",
"J.J.J.J.J.J.J.J.J.J.J.J.J.J.J.J.J.J.J.J.J.J.J.J.J.J.J.$ W ' k.m.Z.B.V.n.p.a.t.t.a.p.B.c.=.! 6   J.J.J.J.J.J.J.J.J.J.J.J.J.J.J.J.",
"J.J.J.J.J.J.J.J.J.J.J.J.J.J.J.J.J.J.J.J.J.J.J.J.J.J.J.J.J.J.J.  . g f T ~ ! ~ 6 f #     J.J.J.J.J.J.J.J.J.J.J.J.J.J.J.J.J.J.J.J.",
"J.J.J.J.J.J.J.J.J.J.J.J.J.J.J.J.J.J.J.J.J.J.J.J.J.J.J.J.J.J.J.J.J.J.J.J.J.J.J.J.J.J.J.J.J.J.J.J.J.J.J.J.J.J.J.J.J.J.J.J.J.J.J.J.",
"J.J.J.J.J.J.J.J.J.J.J.J.J.J.J.J.J.J.J.J.J.J.J.J.J.J.J.J.J.J.J.J.J.J.J.J.J.J.J.J.J.J.J.J.J.J.J.J.J.J.J.J.J.J.J.J.J.J.J.J.J.J.J.J.",
"J.J.J.J.J.J.J.J.J.J.J.J.J.J.J.J.J.J.J.J.J.J.J.J.J.J.J.J.J.J.J.J.J.J.J.J.J.J.J.J.J.J.J.J.J.J.J.J.J.J.J.J.J.J.J.J.J.J.J.J.J.J.J.J.",
"J.J.J.J.J.J.J.J.J.J.J.J.J.J.J.J.J.J.J.J.J.J.J.J.J.J.J.J.J.J.J.J.J.J.J.J.J.J.J.J.J.J.J.J.J.J.J.J.J.J.J.J.J.J.J.J.J.J.J.J.J.J.J.J.",
"J.J.J.J.J.J.J.J.J.J.J.J.J.J.J.J.J.J.J.J.J.J.J.J.J.J.J.J.J.J.J.J.J.J.J.J.J.J.J.J.J.J.J.J.J.J.J.J.J.J.J.J.J.J.J.J.J.J.J.J.J.J.J.J.",
"J.J.J.J.J.J.J.J.J.J.J.J.J.J.J.J.J.J.J.J.J.J.J.J.J.J.J.J.J.J.J.J.J.J.J.J.J.J.J.J.J.J.J.J.J.J.J.J.J.J.J.J.J.J.J.J.J.J.J.J.J.J.J.J.",
"J.J.J.J.J.J.J.J.J.J.J.J.J.J.J.J.J.J.J.J.J.J.J.J.J.J.J.J.J.J.J.J.J.J.J.J.J.J.J.J.J.J.J.J.J.J.J.J.J.J.J.J.J.J.J.J.J.J.J.J.J.J.J.J.",
"J.J.J.J.J.J.J.J.J.J.J.J.J.J.J.J.J.J.J.J.J.J.J.J.J.J.J.J.J.J.J.J.J.J.J.J.J.J.J.J.J.J.J.J.J.J.J.J.J.J.J.J.J.J.J.J.J.J.J.J.J.J.J.J."
};
