/* XPM */
static char *exit_open[] = {
/* columns rows colors chars-per-pixel */
"64 64 163 2 ",
"   c #010101",
".  c #0A0A03",
"X  c #040A0A",
"o  c #090909",
"O  c #0C0704",
"+  c #1A0D05",
"@  c #120A06",
"#  c #111106",
"$  c #151509",
"%  c #1B1B0C",
"&  c #1D1007",
"*  c #0B1818",
"=  c #071313",
"-  c #211207",
";  c #24160C",
":  c #2A180B",
">  c #2C1E13",
",  c #2B2B16",
"<  c #2E2E18",
"1  c #272714",
"2  c #382416",
"3  c #38381E",
"4  c #36361F",
"5  c #132626",
"6  c #3E3E23",
"7  c #213C3C",
"8  c #462A17",
"9  c #4F301A",
"0  c #53331B",
"q  c #442F20",
"w  c #483324",
"e  c #563A25",
"r  c #633D22",
"t  c #4C4C2C",
"y  c #404024",
"u  c #5A402D",
"i  c #51512F",
"p  c #545431",
"a  c #5D5D36",
"s  c #6C4326",
"d  c #714728",
"f  c #75492A",
"g  c #7C4E2D",
"h  c #7F502E",
"j  c #624530",
"k  c #694D36",
"l  c #73543B",
"z  c #78573E",
"x  c #6C5139",
"c  c #63633B",
"v  c #6A6A3E",
"b  c #294949",
"n  c #2E5050",
"m  c #345858",
"M  c #3B6464",
"N  c #585858",
"B  c #7E5B41",
"V  c #6D6D41",
"C  c #737344",
"Z  c #797947",
"A  c #7B7B4A",
"S  c #777748",
"D  c #416D6D",
"F  c #497C7C",
"G  c #477979",
"H  c #606060",
"J  c #797979",
"K  c #80502E",
"L  c #855431",
"P  c #885632",
"I  c #8D5934",
"U  c #935D36",
"Y  c #9C633A",
"T  c #976038",
"R  c #A2673D",
"E  c #A5693E",
"W  c #A86B3F",
"Q  c #825D42",
"!  c #896246",
"~  c #906749",
"^  c #9A6E4F",
"/  c #936A4C",
"(  c #AD6E41",
")  c #AF7042",
"_  c #B47344",
"`  c #B97646",
"'  c #BE7A49",
"]  c #BB7847",
"[  c #A77957",
"{  c #AC7C59",
"}  c #A47755",
"|  c #B07F5B",
" . c #C27C4A",
".. c #83834E",
"X. c #878750",
"o. c #8B8B53",
"O. c #919157",
"+. c #959559",
"@. c #9C9C5D",
"#. c #B5825E",
"$. c #BD8862",
"%. c #BC8762",
"&. c #A3A362",
"*. c #AAAA66",
"=. c #AEAE69",
"-. c #B4B46C",
";. c #BDBD72",
":. c #CA824E",
">. c #D18651",
",. c #D58952",
"<. c #DB8C55",
"1. c #E19157",
"2. c #E39258",
"3. c #C38D66",
"4. c #CB936A",
"5. c #D1976D",
"6. c #D5996F",
"7. c #DA9D72",
"8. c #DFA175",
"9. c #E2A376",
"0. c #E6A678",
"q. c #EBAA7B",
"w. c #E8A87A",
"e. c #F2AE7E",
"r. c #C3C375",
"t. c #C7C778",
"y. c #CBCB7A",
"u. c #D2D27E",
"i. c #4D8282",
"p. c #528A8A",
"a. c #5A9898",
"s. c #66ABAB",
"d. c #68AEAE",
"f. c #6CB5B5",
"g. c #73BFBF",
"h. c #75C3C3",
"j. c #7ACCCC",
"k. c #F6B181",
"l. c #FFB785",
"z. c #FFB886",
"x. c #D7D782",
"c. c #DCDC84",
"v. c #E1E187",
"b. c #E5E58A",
"n. c #ECEC8E",
"m. c #EFEF90",
"M. c #F2F292",
"N. c #F9F996",
"B. c #FFFF99",
"V. c #84DBDB",
"C. c #8AE6E6",
"Z. c #8EECEC",
"A. c #87E1E1",
"S. c #90EFEF",
"D. c #93F4F4",
"F. c #99FFFF",
"G. c #97FBFB",
"H. c #C6C6C6",
"J. c #DCDCDC",
"K. c #D0D0D0",
"L. c #EEEEEE",
"P. c white",
"I. c None",
/* pixels */
"I.I.I.I.I.  I.    I.  I.I.I.I.I.I.I.I.I.I.I.I.I.I.I.I.I.I.I.I.I.I.I.I.I.I.I.I.I.I.I.I.I.I.I.I.I.I.I.I.I.I.I.I.I.I.I.I.I.I.I.I.I.",
"I.I.I.I.I.  I.I.I.I.I.I.I.I.I.I.I.I.I.I.I.I.I.I.I.I.I.I.I.I.I.I.I.I.I.I.I.I.I.I.I.I.I.I.I.I.I.I.I.I.I.I.I.I.I.I.I.I.I.I.I.I.I.I.",
"I.I.I.I.I.  I.I.I.I.I.I.I.I.I.I.I.I.I.I.I.I.I.I.I.I.I.I.I.I.I.I.I.o           o I.I.I.I.I.I.I.I.I.I.I.I.I.I.I.I.I.I.I.I.I.I.I.I.",
"I.I.I.I.I.  I.I.I.I.I.I.I.I.I.I.I.I.I.I.I.I.I.I.I.I.I.I.I.I.I.    8 R   { 3.^ w   I.I.I.I.I.I.I.I.I.I.I.I.I.I.I.I.I.I.I.I.I.I.I.",
"I.I.I.I.I.  I.I.I.I.I.I.I.I.I.I.I.I.I.I.I.I.I.I.I.I.I.I.I.I.  8 W 1.1.2 %.l.l.4.  I.I.I.I.I.I.I.I.I.I.I.I.I.I.I.I.I.I.I.I.I.I.I.",
"I.I.I.I.I.  I.I.I.I.I.I.I.I.I.I.I.I.I.I.I.I.I.I.I.I.I.I.  + Y <.2.2.2.d #.l.l.4.  I.I.I.I.I.I.I.I.I.I.I.I.I.I.I.I.I.I.I.I.I.I.I.",
"I.I.I.I.I.  I.I.I.I.I.I.I.I.I.I.I.I.o     o             g >.2.2.2.2.2.f { l.l.5.        o   I.I.I.I.I.I.I.I.I.I.I.I.I.I.I.I.I.I.",
"I.I.I.I.I.  I.I.I.I.I.I.o         , C +.=.;.u.x.O.  9 ' 2.2.2.2.2.2.2.K ~ l.l.6.  ;.;.*.X.c #       o   I.I.I.I.I.I.I.I.I.I.I.I.",
"I.I.I.I.I.  I.I.I.I.I.# C &.y.v.M.B.B.B.B.B.u.a : W <.2.2.2.2.2.2.2.2.U B l.l.7.  n.B.B.B.B.B.n.c.;.+.a o I.I.I.I.I.I.I.I.I.I.I.",
"I.I.I.I.I.  I.I.I.I.I.C B.B.B.B.B.B.B.B.x.Z   P ,.2.2.2.2.2.2.2.2.2.2.Y l l.l.9.  n.B.B.B.B.B.B.B.B.B.n.  I.I.I.I.I.I.I.I.I.I.I.",
"I.I.I.I.I.  I.I.I.I.I.C B.B.B.B.B.N.u.C   g :.2.2.2.2.2.2.2.2.2.2.2.2.E k l.l.0.  @.r.c.M.B.B.B.B.B.B.b.  I.I.I.I.I.I.I.I.I.I.I.",
"I.I.I.I.I.  I.I.I.I.I.c B.B.B.M.*.i   K :.1.2.2.2.2.2.2.2.2.2.2.2.2.2._ q l.l.w.          V @.c.B.B.B.b.  I.I.I.I.I.I.I.I.I.I.I.",
"I.I.I.I.I.  I.I.I.I.I., B.B.B.@.8 Y >.2.2.2.2.2.2.2.2.2.2.2.2.2.2.2.2.` ; l.z.q.              < B.B.B.c.  I.I.I.I.I.I.I.I.I.I.I.",
"I.I.I.I.I.  I.I.I.I.I.. B.B.B.o.K 2.2.2.2.2.2.2.2.2.2.2.2.2.2.2.2.2.2. .O z.z.q.                N.B.B.u.  I.I.I.I.I.I.I.I.I.I.I.",
"I.I.I.I.I.  I.I.I.I.I.  M.B.B.+.K 2.2.2.2.2.2.2.2.2.2.2.2.2.2.2.2.2.2. .  e.z.e.              . B.B.B.y.  I.I.I.I.I.I.I.I.I.I.I.",
"I.I.I.I.I.  I.I.I.I.I.  b.B.B.*.g 2.2.2.2.2.2.2.2.2.2.2.2.2.2.2.2.2.2. .  q.l.k.              3 B.B.B.-.  I.I.I.I.I.I.I.I.I.I.I.",
"I.I.I.I.I.  I.I.I.I.I.  c.B.B.-.r 2.2.2.2.2.2.2.2.2.2.2.2.2.2.2.2.2.2.:.  w.l.l.              C B.B.B.&.  I.I.I.I.o o I.I.I.I.I.",
"I.I.I.I.I.  I.I.I.I.I.  u.B.B.r.; 2.2.2.2.2.2.2.2.2.2.2.2.2.2.2.2.2.2.>.  9.l.l.@             A B.B.B.X.o I.I.I.    I.I.I.I.I.I.",
"I.I.I.I.I.  I.I.I.I.I.  t.B.B.u.  1.2.2.2.2.2.2.2.2.2.2.2.2.2.2.2.2.2.,.  7.l.z.;             @.B.B.B.V   I.  * m   I.I.I.I.I.I.",
"I.I.I.I.I.  I.I.I.I.I.  =.B.B.v.  ,.2.2.2.1.2.2.2.2.2.2.2.2.2.2.2.2.2.,.  6.l.z.2             =.B.B.B.6 o   i.C.F o I.I.I.I.I.I.",
"I.I.I.I.I.  I.I.I.I.I.o O.B.B.m.  :.2.2.2.2.2.2.2.2.2.2.2.2.2.2.2.2.2.<.  5.z.l.e             y.B.B.r.. n j.F.S.  I.I.I.I.I.I.I.",
"I.I.I.I.I.  I.I.I.I.I.o A B.B.B.$ ] 2.2.2.2.2.2.2.2.2.2.2.2.2.2.2.2.2.1.  4.l.l.j             u.v.C * s.D.F.F.h.  I.I.I.I.I.I.I.",
"I.I.I.I.I.  I.I.I.I.I.I.p B.B.B.t _ 2.2.2.2.2.2.2.2.2.2.2.2.2.2.2.2.2.2.  4.l.l.x             / o F C.F.F.F.F.i.o I.I.I.I.I.I.I.",
"I.I.I.I.I.  I.I.I.I.I.I.$ B.B.B.Z Y 2.2.2.2.2.2.2.2.2.2.2.2.2.2.2.2.2.2.+ 3.l.l.l             n j.F.F.F.F.F.D.  I.I.I.I.I.I.I.I.",
"I.I.I.I.I.  I.I.I.I.I.I.  n.B.B.+.P 1.2.2.2.2.2.2.2.2.2.2.2.2.2.2.2.2.2.: 3.l.l.B         = s.G.F.F.F.F.F.F.h.  I.I.I.I.I.I.I.I.",
"I.I.I.I.I.  I.I.I.I.I.I.  v.B.B.-.s 2.2.2.2.2.2.2.2.2.2.2.2.2.2.2.2.2.2.8 #.l.l.!       F C.F.F.F.F.F.F.F.F.i.o I.I.I.o   I.I.I.",
"I.I.I.I.I.  I.I.I.I.I.I.  y.B.B.t.; 2.2.2.2.2.2.2.2.2.2.2.2.2.2.2.2.2.2.0 | l.l.B   n j.F.F.F.F.F.F.F.F.F.D.X         M s.I.I.I.",
"I.I.I.I.I.  I.I.I.I.I.I.  -.B.B.u.  <.2.2.2.2.2.2.2.2.2.2.2.2.2.2.2.2.2.d { l.l.w p.D.F.F.F.F.F.F.F.F.F.F.j.  b a.j.Z.F.F.I.I.I.",
"I.I.I.I.I.  I.I.I.I.I.I.  &.B.B.b.  :.2.2.2.2.2.2.2.2.2.2.2.1.2.<.2.2.2.f [ z.l.e f.F.F.F.F.F.F.F.F.F.F.F.V.A.F.F.F.F.F.F.I.I.I.",
"I.I.I.I.I.  I.I.I.I.I.I.o X.B.B.M.  ` 2.2.2.2.2.2.2.2.2.2.2.>.r   f <.2.f } l.l.j f.F.F.F.F.F.F.F.F.F.F.F.F.F.F.F.F.F.F.F.I.I.I.",
"I.I.I.I.I.  I.I.I.I.I.I.I.a B.B.B.6 ( 2.2.2.2.2.2.2.2.2.2.2.d J K.N I 2.f ^ l.l.x d.F.F.F.F.F.F.F.F.F.F.F.F.F.F.F.F.F.F.F.I.I.I.",
"I.I.I.I.I.  I.I.I.I.I.I.I.% N.B.B.Z T 2.2.2.2.2.2.2.2.2.2.,.  J.P.H.& 1.h ~ l.l.x s.F.F.F.F.F.F.F.F.F.F.F.F.F.F.F.F.F.F.F.I.I.I.",
"I.I.I.I.I.  I.I.I.I.I.I.I.  m.B.B.+.g 2.2.2.2.2.2.2.2.2.2. .. L.P.J.  <.I ! l.l.l s.F.F.F.F.F.F.F.F.F.F.F.F.F.F.F.F.F.F.F.I.I.I.",
"I.I.I.I.I.  I.I.I.I.I.I.I.  v.B.B.=.0 2.2.2.2.2.2.2.2.2.2.,.  J.P.H.+ 1.U Q l.l.Q s.F.F.F.F.F.F.F.F.F.F.F.F.F.F.F.F.F.F.F.I.I.I.",
"I.I.I.I.I.  I.I.I.I.I.I.I.  y.B.B.t.  2.2.2.2.2.2.2.2.2.2.2.s J J.H P 2.T B l.l.Q s.F.F.F.F.F.F.F.F.F.F.F.F.F.F.F.F.F.F.F.I.I.I.",
"I.I.I.I.I.  I.I.I.I.I.I.I.  ;.B.B.c.  ,.2.2.2.2.2.2.2.2.2.2.:.0   r <.1.T B l.l.! s.F.F.F.F.F.F.F.F.F.F.F.F.F.F.F.F.F.F.F.I.I.I.",
"I.I.I.I.I.  I.I.I.I.I.I.I.o @.B.B.n.   .2.2.2.2.2.2.2.2.2.2.2.1.>.2.2.2.Y B l.l./ s.F.F.F.F.F.F.F.F.F.F.F.F.F.F.F.F.F.F.F.I.I.I.",
"I.I.I.I.I.  I.I.I.I.I.I.I.  C B.B.B.. _ 2.2.2.2.2.2.2.2.2.2.2.2.2.2.2.2.E z l.l./ a.F.F.F.F.F.F.F.F.F.F.F.F.F.F.F.F.F.F.F.I.I.I.",
"I.I.I.I.I.  I.I.I.I.I.I.I.I.6 B.B.B.V Y 2.2.2.2.2.2.2.2.2.2.2.2.2.2.2.2.( l l.l.| X g.F.F.F.F.F.F.F.F.F.s.h.F.F.F.F.F.F.F.I.I.I.",
"I.I.I.I.I.  I.I.I.I.I.I.I.I.  N.B.B.@.P 2.2.2.2.2.2.2.2.2.2.2.2.2.2.2.2.( u l.l.6.    d.F.F.F.F.F.F.F.F.p.  p.D.F.F.F.F.F.I.I.I.",
"I.I.I.I.I.  I.I.I.I.I.I.I.I.  b.B.B.-.s 2.2.2.2.2.2.2.2.2.2.2.2.2.2.2.2.) w l.l.8.      a.F.F.F.F.F.F.F.M o   n V.F.F.F.F.I.I.I.",
"I.I.I.I.I.  I.I.I.I.I.I.I.I.  x.B.B.y.: 2.2.2.2.2.2.2.2.2.2.2.2.2.2.2.2.( > z.l.9.        p.G.F.F.F.F.G.* I.I.o o f.F.F.F.I.I.I.",
"I.I.I.I.I.  I.I.I.I.I.I.I.I.o r.B.B.c.  <.2.2.2.2.2.2.2.2.2.2.2.2.2.2.2._ & z.l.0.      ..6 F D.F.F.F.D.  I.I.I.I.  G Z.F.I.I.I.",
"I.I.I.I.I.  I.I.I.I.I.I.I.I.  =.B.B.m.  :.2.2.2.2.2.2.2.2.2.2.2.2.2.2.2._ O z.l.w.      y.b.i M Z.F.F.A.  I.I.I.I.I.  7 j.I.I.I.",
"I.I.I.I.I.  I.I.I.I.I.I.I.I.  O.B.B.B.% ` 2.2.2.2.2.2.2.2.2.2.2.2.2.2.2.`   k.z.q.      c.B.n.v m C.F.j.  I.I.I.I.I.I.o   I.I.I.",
"I.I.I.I.I.  I.I.I.I.I.I.I.I.I.v B.B.B.V R 1.2.2.2.2.2.2.2.2.2.2.2.2.2.2.`   e.l.q.      n.B.B.t.  7 V.g.  I.I.I.I.I.I.I.I.I.I.I.",
"I.I.I.I.I.  I.I.I.I.I.I.I.I.I.1 B.B.B.+.P 2.2.2.2.2.2.2.2.2.2.2.2.2.2.2.`   q.l.k.    1 B.B.B.=.o   5 D   I.I.I.I.I.I.I.I.I.I.I.",
"I.I.I.I.I.  I.I.I.I.I.I.I.I.I.  n.B.B.-.r 2.2.2.2.2.2.2.2.2.2.2.2.2.2.2.`   q.l.l.    C B.B.B.o.  I.o   o I.I.I.I.I.I.I.I.I.I.I.",
"I.I.I.I.I.  I.I.I.I.I.I.I.I.I.  c.B.B.y.- 2.2.2.2.2.2.2.2.2.2.2.2.2.2.2.'   0.l.l.    O.B.B.B.c o I.I.I.o I.I.I.I.I.I.I.I.I.I.I.",
"I.I.I.I.I.  I.I.I.I.I.I.I.I.I.  r.B.B.c.  >.2.2.2.2.2.2.2.2.2.2.2.2.2.2. .  8.l.z.O   =.B.B.B.o I.I.I.I.I.I.I.I.I.I.I.I.I.I.I.I.",
"I.I.I.I.I.  I.I.I.I.I.I.I.I.I.  *.B.B.n.   .2.2.2.2.2.2.2.2.2.2.2.2.2.2. .  7.l.z.>   t.B.B.m.  I.I.I.I.I.I.I.I.I.I.I.I.I.I.I.I.",
"I.I.I.I.I.  I.I.I.I.I.I.I.I.I.o X.B.B.B.3 _ 2.2.2.2.2.2.2.2.2.2.2.2.2.1. .  5.l.z.q   v.B.B.c.  I.I.I.I.I.I.I.I.I.I.I.I.I.I.I.I.",
"I.I.I.I.I.  I.I.I.I.I.I.I.I.I.o c B.B.B.C Y 2.2.2.2.2.2.2.2.2.2.2.2.2.2. .  4.l.l.e   M.B.B.r.  I.I.I.I.I.I.I.I.I.I.I.I.I.I.I.I.",
"I.I.I.I.I.  I.I.I.I.I.I.I.I.I.I.% B.B.B.+.P 2.2.2.2.2.2.2.2.2.2.2.2.2.2. .  4.l.l.k , B.B.B.*.  I.I.I.I.I.I.I.I.I.I.I.I.I.I.I.I.",
"I.I.I.I.I.  I.I.I.I.I.I.I.I.I.I.  n.B.B.-.r 2.2.2.2.2.2.2.2.2.2.2.2.2.2. .  3.l.l.l S B.B.B.X.  I.I.I.I.I.I.I.I.I.I.I.I.I.I.I.I.",
"I.I.I.I.I.  I.I.I.I.I.I.I.I.I.I.  ;.x.x.*.- 2.2.2.2.2.2.2.2.2.2.2.2.2.2. .  $.l.l.B S x.x.x.a o I.I.I.I.I.I.I.I.I.I.I.I.I.I.I.I.",
"I.I.I.I.I.  I.I.I.I.I.I.I.  . . . . . . .   U :.2.2.2.2.2.2.2.2.2.2.2.2. .  #.l.l.Q   . . . . . . .   I.I.I.I.I.I.I.I.I.I.I.I.I.",
"I.I.I.I.I.  I.I.I.I.I.I.o i N.N.B.N.N.B.N.-.a   0 Y :.2.2.2.2.2.2.2.2.2. .  { l.l.! O.B.N.B.N.B.B.B...  I.I.I.I.I.I.I.I.I.I.I.I.",
"I.I.I.I.I.  I.I.I.I.I.I.o a B.B.B.B.B.B.B.B.B.v.=.p   0 R >.1.1.2.2.2.2. .  [ l.l.~ o.B.B.B.B.B.B.B.@.  I.I.I.I.I.I.I.I.I.I.I.I.",
"I.I.I.I.I.  I.I.I.I.I.I.o c B.B.B.B.B.B.B.B.B.B.B.B.v.&.t   r ( ,.1.2.2. .  } l.l.^ X.B.B.B.B.B.B.B.@.o I.I.I.I.I.I.I.I.I.I.I.I.",
"I.I.I.I.I.  I.I.I.I.I.I.o t v.N.B.B.B.B.B.B.B.B.B.B.B.B.B.c.&.y   s ( ,. .  B %.Q & A B.B.B.B.B.N.b.Z o I.I.I.I.I.I.I.I.I.I.I.I.",
"I.I.I.I.I.  I.I.I.I.I.I.I.      p X.&.*.-.r.y.y.c.v.b.b.b.b.b.v.-.c     0       , A =.-.*.&.o.a       I.I.I.I.I.I.I.I.I.I.I.I.I.",
"I.I.I.I.I.  I.I.I.I.I.I.I.I.I.I.                                                                I.I.I.I.I.I.I.I.I.I.I.I.I.I.I.I.",
"I.I.I.I.I.  I.I.I.I.I.I.I.I.I.I.I.I.I.I.I.I.I.I.I.I.I.I.I.I.I.I.I.I.I.I.I.I.I.I.I.I.I.I.I.I.I.I.I.I.I.I.I.I.I.I.I.I.I.I.I.I.I.I."
};
