/* XPM */
static char *exit[] = {
/* columns rows colors chars-per-pixel */
"64 64 98 2 ",
"   c #010101",
".  c #0E0602",
"X  c #0D0D05",
"o  c #0B0B0B",
"O  c #150A04",
"+  c #111106",
"@  c #16160A",
"#  c #1A1A0C",
"$  c #231409",
"%  c #28160A",
"&  c #2C190C",
"*  c #331D0F",
"=  c #212111",
"-  c #2B2B16",
";  c #2E2E18",
":  c #3C2312",
">  c #35351C",
",  c #2C2C2C",
"<  c #462B17",
"1  c #4B2E18",
"2  c #55341C",
"3  c #5A371E",
"4  c #653F23",
"5  c #424225",
"6  c #474728",
"7  c #4B4B2B",
"8  c #555532",
"9  c #5C5C36",
"0  c #6A4225",
"q  c #714628",
"w  c #75492A",
"e  c #7A4D2C",
"r  c #606037",
"t  c #64643B",
"y  c #6A6A3F",
"u  c #434343",
"i  c gray30",
"p  c #6C6C41",
"a  c #747445",
"s  c #7D7D4A",
"d  c gray45",
"f  c #80502E",
"g  c #855431",
"h  c #895632",
"j  c #8D5934",
"k  c #925C36",
"l  c #976038",
"z  c #9C633A",
"x  c #A1663C",
"c  c #A76A3F",
"v  c #AC6D41",
"b  c #AF7042",
"n  c #B47344",
"m  c #B97747",
"M  c #BB7847",
"N  c #BD7948",
"B  c #C37D4A",
"V  c #82824E",
"C  c #878750",
"Z  c #8C8C53",
"A  c #959559",
"S  c #9E9E5E",
"D  c #A0A05F",
"F  c #A4A462",
"G  c #AAAA66",
"H  c #ABAB69",
"J  c #B3B36B",
"K  c #B8B86E",
"L  c #BDBD71",
"P  c #CB824D",
"I  c #D18651",
"U  c #D68953",
"Y  c #DB8C55",
"T  c #E09057",
"R  c #E39258",
"E  c #C3C375",
"W  c #C7C778",
"Q  c #CBCB7A",
"!  c #D1D17D",
"~  c #818181",
"^  c #AFAFAF",
"/  c #D6D681",
"(  c #DCDC84",
")  c #E1E187",
"_  c #E5E589",
"`  c #EBEB8E",
"'  c #EFEF90",
"]  c #F3F393",
"[  c #F9F996",
"{  c #FFFF99",
"}  c #C1C1C1",
"|  c #CCCCCC",
" . c gray82",
".. c #DCDCDC",
"X. c #EDEDED",
"o. c gray97",
"O. c #FEFEFE",
"+. c None",
/* pixels */
"+.+.+.+.+.+.+.+.+.+.+.+.+.+.+.+.+.+.+.+.+.+.+.+.+.+.+.+.+.+.+.+.+.+.+.+.+.+.+.+.+.+.+.+.+.+.+.+.+.+.+.+.+.+.+.+.+.+.+.+.+.+.+.+.",
"+.+.+.+.+.+.+.+.+.+.+.+.+.+.+.+.+.+.                                                            +.+.+.+.+.+.+.+.+.+.+.+.+.+.+.+.",
"+.+.+.+.+.+.+.+.+.+.+.              > r s F G L W Q / / _ _ ` _ ` _ _ ` ` ) / / W E J G A a 9 #             +.+.+.+.+.+.+.+.+.+.",
"+.+.+.+.+.+.+.+.+.      9 Z J ! ) ] { { { { { { { { { { { { { { { { { { { { { { { { { { { { { [ ' ( Q H V 5     +.+.+.+.+.+.+.+.",
"+.+.+.+.+.+.+.+.+.@ / ] { { { { { { { { { { { { { { { { { { { { { { { { { { { { { { { { { { { { { { { { { [ ' H +.+.+.+.+.+.+.+.",
"+.+.+.+.+.+.+.+.+.= { { { { { { { { { { { { ] ` ) W W J H H H A Z Z H H G J E W / _ ] { { { { { { { { { { { { / +.+.+.+.+.+.+.+.",
"+.+.+.+.+.+.+.+.+.= { { { { { { [ _ W G C 6               % < < < < < *               - s F E / ] { { { { { { / +.+.+.+.+.+.+.+.",
"+.+.+.+.+.+.+.+.+.@ { { { { W s @     $ 0 k z m B I I T R R R R R R R R R R U I B m v z w :       t G { { { { ! +.+.+.+.+.+.+.+.",
"+.+.+.+.+.+.+.+.+.  ] { { { o 2 z M I R R R R R R R R R R R R R R R R R R R R R R R R R R R U B v q   / { { { Q +.+.+.+.+.+.+.+.",
"+.+.+.+.+.+.+.+.+.  ' { { ]   z R R R R R R R R R R R R R R R R R R R R R R R R R R R R R R R R R I   Q { { { W +.+.+.+.+.+.+.+.",
"+.+.+.+.+.+.+.+.+.  _ { { [   x R R R R R R R R R R R R R R R R R R R R R R R R R R R R R R R R R P   W { { { J +.+.+.+.+.+.+.+.",
"+.+.+.+.+.+.+.+.+.  / { { {   x R R R R R R R R R R R R R R R R R R R R R R R R R R R R R R R R R M   / { { { F +.+.+.+.+.+.+.+.",
"+.+.+.+.+.+.+.+.+.  W { { { 5 k R R R R R R R R R R R R R R R R R R R R R R R R R R R R R R R R R m   ) { { { V +.+.+.+.+.+.+.+.",
"+.+.+.+.+.+.+.+.+.  E { { { p e R R R R R R R R R R R R R R R R R R R R R R R R R R R R R R R R R v   ` { { { y +.+.+.+.+.+.+.+.",
"+.+.+.+.+.+.+.+.+.  H { { { V 4 R R R R R R R R R R R R R R R R R R R R R R R R R R R R R R R R R z   ] { { { - +.+.+.+.+.+.+.+.",
"+.+.+.+.+.+.+.+.+.  F { { { S 1 R R R R R R R R R R R R R R R R R R R R R R R R R R R R R R R R R z > { { { {   +.+.+.+.+.+.+.+.",
"+.+.+.+.+.+.+.+.+.  V { { { H O R R R R R R R R R R R R R R R R R R R R R R R R R R R R R R R R R e a { { { `   +.+.+.+.+.+.+.+.",
"+.+.+.+.+.+.+.+.+.  8 { { { W   U R R R R R R R R R R R R R R R R R R R R R R R R R R R R R R R R 0 Z { { { )   +.+.+.+.+.+.+.+.",
"+.+.+.+.+.+.+.+.+.  + [ { { !   P R R R R R R R R R R R R R R R R R R R R R R R R R R R R R R R R : G { { { Q   +.+.+.+.+.+.+.+.",
"+.+.+.+.+.+.+.+.+.+.  ] { { _   B R R R R R R R R R R R R R R R R R R R R R R R R R R R R R R R Y   J { { { L   +.+.+.+.+.+.+.+.",
"+.+.+.+.+.+.+.+.+.+.  _ { { ]   n R R R R R R R R R R R R R R R R R R R R R R R R R R R R R R R I   Q { { { G   +.+.+.+.+.+.+.+.",
"+.+.+.+.+.+.+.+.+.+.  ! { { { + x R R R R R R R R R R R R R R R R R R R R R R R R R R R R R R R m   / { { { C   +.+.+.+.+.+.+.+.",
"+.+.+.+.+.+.+.+.+.+.  L { { { 9 h R R R R R R R R R R R R R R R R R R R R R R R R R R R R R R R n   ` { { { 9 o +.+.+.+.+.+.+.+.",
"+.+.+.+.+.+.+.+.+.+.  G { { { C 0 R R R R R R R R R R R R R R R R R R R R R R R R R R R R R R R z + { { { { @   +.+.+.+.+.+.+.+.",
"+.+.+.+.+.+.+.+.+.+.  Z { { { F & R R R R R R R R R R R R R R R R R R R R R R R R R R R R R R R h t { { { '   +.+.+.+.+.+.+.+.+.",
"+.+.+.+.+.+.+.+.+.+.  p { { { J   U R R R R R R R R R R R R R R R R R R R R R R R R R R R R R R 4 C { { { (   +.+.+.+.+.+.+.+.+.",
"+.+.+.+.+.+.+.+.+.+.  > { { { W   P R R R R R R R R R R R R R R R R R R R R R R R R R R R R R R % G { { { Q   +.+.+.+.+.+.+.+.+.",
"+.+.+.+.+.+.+.+.+.+.    ] { { /   m R R R R R R R R R R R R R R R R R R R R R I l e j P R R R U   J { { { L   +.+.+.+.+.+.+.+.+.",
"+.+.+.+.+.+.+.+.+.+.+.  _ { { '   v R R R R R R R R R R R R R R R R R R R R I & , ~ u O m R R P   W { { { F   +.+.+.+.+.+.+.+.+.",
"+.+.+.+.+.+.+.+.+.+.+.  / { { { @ z R R R R R R R R R R R R R R R R R R R R 0 i X.O.o.d : Y R m   / { { { C   +.+.+.+.+.+.+.+.+.",
"+.+.+.+.+.+.+.+.+.+.+.  E { { { r g R R R R R R R R R R R R R R R R R R R I   } O.O.O...  m R c   ' { { { 7   +.+.+.+.+.+.+.+.+.",
"+.+.+.+.+.+.+.+.+.+.+.  H { { { C 2 R R R R R R R R R R R R R R R R R R R B    .O.O.O.X.  b R k X { { { [ X   +.+.+.+.+.+.+.+.+.",
"+.+.+.+.+.+.+.+.+.+.+.o A { { { F   T R R R R R R R R R R R R R R R R R R Y   ^ O.O.O.|   B R e 9 { { { _   +.+.+.+.+.+.+.+.+.+.",
"+.+.+.+.+.+.+.+.+.+.+.  a { { { L   I R R R R R R R R R R R R R R R R R R R h , | o...i 4 T R 1 V { { { !   +.+.+.+.+.+.+.+.+.+.",
"+.+.+.+.+.+.+.+.+.+.+.  5 { { { !   B T R R R R R R R R R R R R R R R R R R Y q       3 I R T   G { { { E   +.+.+.+.+.+.+.+.+.+.",
"+.+.+.+.+.+.+.+.+.+.+.+.  ] { { )   n R R R R R R R R R R R R R R R R R R R R R B c m Y T R I   W { { { G   +.+.+.+.+.+.+.+.+.+.",
"+.+.+.+.+.+.+.+.+.+.+.+.  ) { { ]   z R R R R R R R R R R R R R R R R R R R R R R R R R R R B   ( { { { s   +.+.+.+.+.+.+.+.+.+.",
"+.+.+.+.+.+.+.+.+.+.+.+.  Q { { { 5 h R R R R R R R R R R R R R R R R R R R R R R R R R R R b   ` { { { 6   +.+.+.+.+.+.+.+.+.+.",
"+.+.+.+.+.+.+.+.+.+.+.+.  J { { { V 0 R R R R R R R R R R R R R R R R R R R R R R R R R R R z = { { { [ X   +.+.+.+.+.+.+.+.+.+.",
"+.+.+.+.+.+.+.+.+.+.+.+.  F { { { G * R R R R R R R R R R R R R R R R R R R R R R R R R R R h y { { { `   +.+.+.+.+.+.+.+.+.+.+.",
"+.+.+.+.+.+.+.+.+.+.+.+.  C { { { L   Y R R R R R R R R R R R R R R R R R R R R R R R R R R 4 Z { { { /   +.+.+.+.+.+.+.+.+.+.+.",
"+.+.+.+.+.+.+.+.+.+.+.+.o 8 { { { !   P R R R R R R R R R R R R R R R R R R R R R R R R R R % G { { { W   +.+.+.+.+.+.+.+.+.+.+.",
"+.+.+.+.+.+.+.+.+.+.+.+.    { { { _   M R R R R R R R R R R R R R R R R R R R R R R R R R U   E { { { G   +.+.+.+.+.+.+.+.+.+.+.",
"+.+.+.+.+.+.+.+.+.+.+.+.+.  ` { { [   c R R R R R R R R R R R R R R R R R R R R R R R R R P   / { { { V o +.+.+.+.+.+.+.+.+.+.+.",
"+.+.+.+.+.+.+.+.+.+.+.+.+.  / { { { 6 k R R R R R R R R R R R R R R R R R R R R R R R R R m   ` { { { 6   +.+.+.+.+.+.+.+.+.+.+.",
"+.+.+.+.+.+.+.+.+.+.+.+.+.  W { { { s q R R R R R R R R R R R R R R R R R R R R R R R R R z + { { { [     +.+.+.+.+.+.+.+.+.+.+.",
"+.+.+.+.+.+.+.+.+.+.+.+.+.  H { { { F < R R R R R R R R R R R R R R R R R R R R R R R R R h r { { { _   +.+.+.+.+.+.+.+.+.+.+.+.",
"+.+.+.+.+.+.+.+.+.+.+.+.+.  Z { { { L   Y R R R R R R R R R R R R R R R R R R R R R R R R 4 Z { { { !   +.+.+.+.+.+.+.+.+.+.+.+.",
"+.+.+.+.+.+.+.+.+.+.+.+.+.  t { { { /   P R R R R R R R R R R R R R R R R R R R R R R R T O H { { { L   +.+.+.+.+.+.+.+.+.+.+.+.",
"+.+.+.+.+.+.+.+.+.+.+.+.+.  X { { { `   n R R R R R R R R R R R R R R R R R R R R R R R U   W { { { F   +.+.+.+.+.+.+.+.+.+.+.+.",
"+.+.+.+.+.+.+.+.+.+.+.+.+.+.  ` { { {   z R R R R R R R R R R R R R R R R R R R R R R R N   / { { { V   +.+.+.+.+.+.+.+.+.+.+.+.",
"+.+.+.+.+.+.+.+.+.+.+.+.+.+.  Q { { { 6 f R R R R R R R R R R R R R R R R R R R R R R R v   _ { { { 9   +.+.+.+.+.+.+.+.+.+.+.+.",
"+.+.+.+.+.+.+.+.+.+.+.+.+.+.  L { { { V 0 R R R R R R R R R R R R R R R R R R R R R R R z - { { { {     +.+.+.+.+.+.+.+.+.+.+.+.",
"+.+.+.+.+.+.+.+.+.+.+.+.+.+.  G { { { G & R R R R R R R R R R R R R R R R R R R R R R R f y { { { )   +.+.+.+.+.+.+.+.+.+.+.+.+.",
"+.+.+.+.+.+.+.+.+.+.+.+.+.+.  C { { { E   Y R R R R R R R R R R R R R R R R R R R R R R 4 Z { { { Q   +.+.+.+.+.+.+.+.+.+.+.+.+.",
"+.+.+.+.+.+.+.+.+.+.+.+.+.+.o 9 { { { /   P R R R R R R R R R R R R R R R R R R R R R R O J { { { K   +.+.+.+.+.+.+.+.+.+.+.+.+.",
"+.+.+.+.+.+.+.+.+.+.+.+.+.+.  X { { { '   n T T R R R T R R T T R R T R R T R R T R R I   W { { { F   +.+.+.+.+.+.+.+.+.+.+.+.+.",
"+.+.+.+.+.+.+.+.+.+.+.+.+.+.    ! ) ) )   j P P P P P P P P P P P P P P P P P P P P P n   E _ ) ) a   +.+.+.+.+.+.+.+.+.+.+.+.+.",
"+.+.+.+.+.+.+.+.+.+.+.o                                                                                       +.+.+.+.+.+.+.+.+.",
"+.+.+.+.+.+.+.+.+.+.+.  G ! ! ! ! ! Q ! Q ! ! ! ! ! ! Q ! ! ! ! ! Q ! ! ! Q ! ! ! ! Q ! Q ! ! ! Q ! ! ! Q E o +.+.+.+.+.+.+.+.+.",
"+.+.+.+.+.+.+.+.+.+.+.  ) { { { { { { { { { { { { { { { { { { { { { { { { { { { { { { { { { { { { { { { { { = o +.+.+.+.+.+.+.+.",
"+.+.+.+.+.+.+.+.+.+.+.  ( { { { { { { { { { { { { { { { { { { { { { { { { { { { { { { { { { { { { { { { { { = o +.+.+.+.+.+.+.+.",
"+.+.+.+.+.+.+.+.+.+.+.  ( { { { { { { { { { { { { { { { { { { { { { { { { { { { { { { { { { { { { { { { { { = o +.+.+.+.+.+.+.+.",
"+.+.+.+.+.+.+.+.+.+.+.  F ( ' { { { { { { { { { { { { { { { { { { { { { { { { { { { { { { { { { { { { ] _ L + +.+.+.+.+.+.+.+.+."
};
