/* XPM */
static char *player_right[] = {
/* columns rows colors chars-per-pixel */
"64 64 91 1 ",
"  c #000002",
". c #242324",
"X c #6F5707",
"o c #504F4F",
"O c #5D5644",
"+ c #515150",
"@ c #555453",
"# c #595A57",
"$ c #5A5C58",
"% c #60615E",
"& c #5B606F",
"* c #646464",
"= c #676766",
"- c gray44",
"; c #8C7F21",
": c #EE5E57",
"> c #C1B12A",
", c #FCD81C",
"< c #F8D423",
"1 c #F8D726",
"2 c #F8D627",
"3 c #F8D728",
"4 c #F8D629",
"5 c #FAD729",
"6 c #F9D236",
"7 c #FAD43A",
"8 c #FAD43C",
"9 c #86837F",
"0 c #CAB27D",
"q c #DBBB79",
"w c #DAB97A",
"e c #DBBB7C",
"r c #DBBC7F",
"t c #DAC746",
"y c #DECC45",
"u c #EED849",
"i c #F3DC4D",
"p c #EBD153",
"a c #EAD261",
"s c #E8D367",
"d c #3F629A",
"f c #4266A4",
"g c #3D74CC",
"h c #3975D7",
"j c #3A75D9",
"k c #4075C8",
"l c #4075CA",
"z c #4175CA",
"x c #4075CC",
"c c #4075CE",
"v c #4E7BCF",
"b c #4079D5",
"n c #4172DD",
"m c #4072DE",
"M c #4272DE",
"N c #4272DF",
"B c #4273DF",
"V c #6386D0",
"C c #668AD7",
"Z c #9A9690",
"A c #9D9C9A",
"S c #A8A6A8",
"D c #AFAFAF",
"F c #BDBCBC",
"G c #DCBD81",
"H c #F7D28C",
"J c #E6CC98",
"K c #ECD19C",
"L c #B7B9C2",
"P c #C2C0C1",
"I c #C3C1C3",
"U c #D8D8DA",
"Y c #DADADA",
"T c gainsboro",
"R c #DDDDDF",
"E c #E2E1E2",
"W c #E2E2E2",
"Q c gray90",
"! c #E6E6E6",
"~ c #EBEAE5",
"^ c #ECEDED",
"/ c gray94",
"( c #F4F4F4",
") c gray97",
"_ c #FAFBF8",
"` c #FCFDFA",
"' c #FDFDFC",
"] c #FDFDFD",
"[ c #FEFFFF",
"{ c white",
"} c None",
/* pixels */
"}}}}}}}}}}}}}}}}}}}}}}}}}}}}}}}}}}}}}}}}}}}}}}}}}}}}}}}}}}}}}}}}",
"}}}}}}}}}}}}}}}}}}}}}}}}}}}}}}}}}}}}}}}}}}}}}}}}}}}}}}}}}}}}}}}}",
"}}}}}}}}}}}}}}}}}}}}}}}}}}}}}}}}}}}}}}}}}}}}}}}}}}}}}}}}}}}}}}}}",
"}}}}}}}}}}}}}}}}}}}}}}}}}}}}}}}}}}}}}}}}}}}}}}}}}}}}}}}}}}}}}}}}",
"}}}}}}}}}}}}}}}}}}}}}}}}}}}}}}}}}}}}}}}}}}}}}}}}}}}}}}}}}}}}}}}}",
"}}}}}}}}}}}}}}}}}}}}}}}}}}}}}}}}}}}}}}}}}}}}}}}}}}}}}}}}}}}}}}}}",
"}}}}}}}}}}}}}}}}}}}}}}}}}}}}}}}}}}}}}}}}}}}}}}}}}}}}}}}}}}}}}}}}",
"}}}}}}}}}}}}}}}}}}}}}}}}}}}}}}}}}}}}}}}}}}}}}}}}}}}}}}}}}}}}}}}}",
"}}}}}}}}}}}}}}}}}}}}}}}}}}}}}}}}}}}}}}}}}}}}}}}}}}}}}}}}}}}}}}}}",
"}}}}}}}}}}}}}}}}}}}}}}}}}}}}}}}}}}}}}}}}}}}}}}}}}}}}}}}}}}}}}}}}",
"}}}}}}}}}}}}}}}}}}}}}}}}}}}}}}}}}}}}}}}}}}}}}}}}}}}}}}}}}}}}}}}}",
"}}}}}}}}}}}}}}}}}}}}}}}}}}}}}}}}}}}}}}}}}}}}}}}}}}}}}}}}}}}}}}}}",
"}}}}}}}}}}}}}}}}}}Z6338>}}}}}}}}}}}}}}}}}}}}}}}}}}}}}}}}}}}}}}}}",
"}}}}}}}}}}}}}}}}}}653351s!/T}}}}}}}}}}}}}}}}}}}}}}}}}}}}}}}}}}}}",
"}}}}}}}}}}}}}}}}}s333356Y[[W}}}}}}}}}}}}}}}}}}}}}}}}}}}}}}}}}}}}",
"}}}}}}}}}}}}}}}}}y3333uY~!(Ks00}}}}}}}}}}}}}}}}}}}}}}}}}}}}}}}}}",
"}}}}}}}}}}}}}}}}}53331Y[[)G1aG0}}}}}}}}}}}}}}}}}}}}}}}}}}}}}}}}}",
"}}}}}}}}}}}}}}}}}t3331W[`)H6eGA}}}}}}}}}}}5>}}}}}}}}}}}}}}}}}}}}",
"}}}}}}}}}}}}}}}}}}5331K(_YarGP}}}}}}}}}}}w36}}}}}}}}}}}}}}}}}}}}",
"}}}}}}}}}}}}}}}}}}t6335ysprGFT}}}}}}}}}}6635t}}}}}}}}}}}}}}}}}}}",
"}}}}}}}}}}}}}}}}}}}Jyyy51wFD0}}}}}}}}}}}}33355a}}}}}}}}}}}}}}}}}",
"}}}}}}}}}}}}}}}}}}}}}0p3509 0}}}}}}}}}}}}533y}}}}}}}}}}}}}}}}}}}",
"}}}}}}}}}}}}}}}}}}}}}}0>70 .;:}}}}}}}}}}6333p}}}}}}}}}}}}}}}}}}}",
"}}}}}}}}}}}}}}}}}}}}}}}wyqOX:-0F}}}}}}}63333}}}}}}}}}}}}}}}}}}}}",
"}}}}}}}}}}}}}}}}}}}}}}}}}8wZ:00I/IT^Ut61333t}}}}}}}}}}}}}}}}}}}}",
"}}}}}}}}}}}}}}}}}6}}}}}}}y4tDY~P^R[[_s55336}}}}}}}}}}}}}}}}}}}}}",
"}}}}}}}}}}}}}}}}}y6}}}}}}}pU__~[[[!([W61310}}}}}}}}}}}}}}}}}}}}}",
"}}}}}}}}}}}}}}tt56y>}}}}}}/][^/[[[[^//i35s}}}}}}}}}}}}}}}}}}}}}}",
"}}}}}}}}}}}}}}tu6tyy}}}}YY!^!([[[[[[!Tq5s}}}}}}}}}}}}}}}}}}}}}}}",
"}}}}}}}}}}}}}}}ty6y6w}}YY[[!([[[[[[[[[]R}}}}}}}}}}}}}}}}}}}}}}}}",
"}}}}}}}}}}}}}}}}65335333s_[[W[[[[[[[[[[[[Y}}}}}}}}}}}}}}}}}}}}}}",
"}}}}}}}}}}}}}}}}}6333333,Y[[!`[[[[[[[[[[(Lvbbvv}}}}}}}}}}}}}}}}}",
"}}}}}}}}}}}}}}}}}t333315<K[[W[[[[[[[[[[!VBBBBBBM}}}}}}}}}}}}}}}}",
"}}}}}}}}}}}}}}}}}}y533355q[)/[[[[[[[[[!CBBBBBBBBM}}}}}}}}}}}}}}}",
"}}}}}}}}}}}}}}}}}}}}u666us(^[[[[[[[[[^CNBBBBBBBBBv}}}}}}}}}}}}}}",
"}}}}}}}}}}}}}}}}}}}}}}}}PD/[[[[[[[[[[LNNBBBBBBBBBh}}}}}}}}}}}}}}",
"}}}}}}}}}}}}}}}}}}}}}}}}}}([[[[[[[[[YjNNBBBBBBBBBB}}}}}}}}}}}}}}",
"}}}}}}}}}}}}}}}}}}}}}}}}}}T[[[[[[[[_CNBBBBBBBBBBBM}}}}}}}}}}}}}}",
"}}}}}}}}}}}}}}}}}}}}}}}}@oS[[[[[[[[UvBBBBBBxBBBBBN}}}}}}}}}}}}}}",
"}}}}}}}}}}}}}}}}}}}}}}}}$+#)[[[[(WLNBBBBBBkkBBBBBb}}}}}}}}}}}}}}",
"}}}}}}}}}}}}}}}}}}}}}}}}%%oAYULSVvBBBBBBnk}NxNNBBv}}}}}}}}}}}}}}",
"}}}}}}}}}}}}}}}}}}}}}}}}}%*#&gjNNNBBBBBNv}&fBNhbxf}}}}}}}}}}}}}}",
"}}}}}}}}}}}}}}}}}}}}}}}}}$***&fNNBBBNNN}}}$*&kkxN}}}}}}}}}}}}}}}",
"}}}}}}}}}}}}}}}}}}}}}}}}}}%*dgNxxkxxxgf}}}%****&}}}}}}}}}}}}}}}}",
"}}}}}}}}}}}}}}}}}}}}}}}}}}}kNbgnNBBBBN}}}}}%****}}}}}}}}}}}}}}}}",
"}}}}}}}}}}}}}}}}}}}}}}}}}}}fnBkBBBBBBN}}}}}$****}}}}}}}}}}}}}}}}",
"}}}}}}}}}}}}}}}}}}}}}}}}}}}kBNnBBBBBBN}}}}}}***=}}}}}}}}}}}}}}}}",
"}}}}}}}}}}}}}}}}}}}}}}}}}}}}BBBBBBBBN}}}}}}}%**=}}}}}}}}}}}}}}}}",
"}}}}}}}}}}}}}}}}}}}}}}}}}}}}NBBBBBBBk}}}}}}}}%%}}}}}}}}}}}}}}}}}",
"}}}}}}}}}}}}}}}}}}}}}}}}}}}}}NBBNBBv}}}}}}}}}}}}}}}}}}}}}}}}}}}}",
"}}}}}}}}}}}}}}}}}}}}}}}}}}}}}}NNNNv}}}}}}}}}}}}}}}}}}}}}}}}}}}}}",
"}}}}}}}}}}}}}}}}}}}}}}}}}}}}}}}}}}}}}}}}}}}}}}}}}}}}}}}}}}}}}}}}",
"}}}}}}}}}}}}}}}}}}}}}}}}}}}}}}}}}}}}}}}}}}}}}}}}}}}}}}}}}}}}}}}}",
"}}}}}}}}}}}}}}}}}}}}}}}}}}}}}}}}}}}}}}}}}}}}}}}}}}}}}}}}}}}}}}}}",
"}}}}}}}}}}}}}}}}}}}}}}}}}}}}}}}}}}}}}}}}}}}}}}}}}}}}}}}}}}}}}}}}",
"}}}}}}}}}}}}}}}}}}}}}}}}}}}}}}}}}}}}}}}}}}}}}}}}}}}}}}}}}}}}}}}}",
"}}}}}}}}}}}}}}}}}}}}}}}}}}}}}}}}}}}}}}}}}}}}}}}}}}}}}}}}}}}}}}}}",
"}}}}}}}}}}}}}}}}}}}}}}}}}}}}}}}}}}}}}}}}}}}}}}}}}}}}}}}}}}}}}}}}",
"}}}}}}}}}}}}}}}}}}}}}}}}}}}}}}}}}}}}}}}}}}}}}}}}}}}}}}}}}}}}}}}}",
"}}}}}}}}}}}}}}}}}}}}}}}}}}}}}}}}}}}}}}}}}}}}}}}}}}}}}}}}}}}}}}}}",
"}}}}}}}}}}}}}}}}}}}}}}}}}}}}}}}}}}}}}}}}}}}}}}}}}}}}}}}}}}}}}}}}",
"}}}}}}}}}}}}}}}}}}}}}}}}}}}}}}}}}}}}}}}}}}}}}}}}}}}}}}}}}}}}}}}}",
"}}}}}}}}}}}}}}}}}}}}}}}}}}}}}}}}}}}}}}}}}}}}}}}}}}}}}}}}}}}}}}}}",
"}}}}}}}}}}}}}}}}}}}}}}}}}}}}}}}}}}}}}}}}}}}}}}}}}}}}}}}}}}}}}}}}"
};
