/* XPM */
static char *player_up[] = {
/* columns rows colors chars-per-pixel */
"64 64 88 1 ",
"  c #7A2427",
". c #645539",
"X c #766646",
"o c #565960",
"O c #5A5C63",
"+ c #5B5D64",
"@ c #5D6168",
"# c #646567",
"$ c #6E7278",
"% c #727273",
"& c #73767C",
"* c #72767D",
"= c #902C2F",
"- c #972F33",
"; c #9D3135",
": c #A23439",
"> c #A9353A",
", c #AE363B",
"< c #AC393E",
"1 c #B2383D",
"2 c #B6383C",
"3 c #B93A3F",
"4 c #BF393F",
"5 c #C7343A",
"6 c #C8353B",
"7 c #C3393F",
"8 c #897A1B",
"9 c #BC3C40",
"0 c #877552",
"q c #98881B",
"w c #AE9C22",
"e c #A59529",
"r c #B8A526",
"t c #B4A331",
"y c #C1AD2A",
"u c #CBB72E",
"i c #D2BD2F",
"p c #C6B233",
"a c #D8C231",
"s c #DDC732",
"d c #D6C23F",
"f c #F6DC22",
"g c #F7DC24",
"h c #F8DA26",
"j c #F9DC24",
"k c #E4CD32",
"l c #E3CD3B",
"z c #EAD233",
"x c #EDD63A",
"c c #F1D933",
"v c #97835D",
"b c #A58F66",
"n c #B29A6F",
"m c #BEA376",
"M c #C6AA7B",
"N c #CBAF7D",
"B c #D4B37A",
"V c #D4B47A",
"C c #D4B47B",
"Z c #D5B57C",
"A c #325F8A",
"S c #346392",
"D c #366799",
"F c #376B9F",
"G c #336EA7",
"H c #356EA7",
"J c #396FA4",
"K c #346FA8",
"L c #356FA8",
"P c #3270A8",
"I c #7D7F81",
"U c #7F8389",
"Y c #898B8D",
"T c #A4A5A6",
"R c #B0B1B2",
"E c #BEBFBF",
"W c #D1B991",
"Q c #C6C7C7",
"! c #D0D0D0",
"~ c #DADADA",
"^ c gray90",
"/ c #EBEBED",
"( c #EEEEEE",
") c gray96",
"_ c gray97",
"` c #FAFAFB",
"' c #FDFDFD",
"] c None",
/* pixels */
"]]]]]]]]]]]]]]]]]]]]]]]]]]]]]]]]]]]]]]]]]]]]]]]]]]]]]]]]]]]]]]]]",
"]]]]]]]]]]]]]]]]]]]]]]]]]]]]]]]]]]]]]]]]]]]]]]]]]]]]]]]]]]]]]]]]",
"]]]]]]]]]]]]]]]]]]]]]]]]]]]]]]]]]]]]]]]]]]]]]]]]]]]]]]]]]]]]]]]]",
"]]]]]]]]]]]]]]]]]]]]]]]]]]]]]]]]]]]]]]]]]]]]]]]]]]]]]]]]]]]]]]]]",
"]]]]]]]]]]]]]]]]]]]]]]]]]]]]]]]]]]]]]]]]]]]]]]]]]]]]]]]]]]]]]]]]",
"]]]]]]]]]]]]]]]]]]]]]]]]]]]]]]]]]]]]]]]]]]]]]]]]]]]]]]]]]]]]]]]]",
"]]]]]]]]]]]]]]]]]]]]]]]]]]]]]]]]]]]]]]]]]]]]]]]]]]]]]]]]]]]]]]]]",
"]]]]]]]]]]]]]]]]]]]]]]]]]]]]]]]]]]]]]]]]]]]]]]]]]]]]]]]]]]]]]]]]",
"]]]]]]]]]]]]]]]]]]]]]]]]]]]]]]]]]]]]]]]]]]]]]]]]]]]]]]]]]]]]]]]]",
"]]]]]]]]]]]]]]]]]]]]]]]]]]]]]]]]]]]]]]]]]]]]]]]]]]]]]]]]]]]]]]]]",
"]]]]]]]]]]]]]]]]]]]]]]]]]]]]]]]]]]]]]]]]]]]]]]]]]]]]]]]]]]]]]]]]",
"]]]]]]]]]]]]]]]]]]]]]]]]]]]]]]]]]]]]]]]]]]]]]]]]]]]]]]]]]]]]]]]]",
"]]]]]]]]]]]]]]]]]]]]]]]]]]]]]]]]]]]]]]]]]]]]]]]]]]]]]]]]]]]]]]]]",
"]]]]]]]]]]]]]]]]]]]]]]]]]]]]]]]]]]]]]]]]]]]]]]]]]]]]]]]]]]]]]]]]",
"]]]]]]]]]]]]]]]]]]]]]]]]]]]]]]]]]]]]]]]]]]]]]]]]]]]]]]]]]]]]]]]]",
"]]]]]]]]]]]]]]]]]]]]]]]]]]]]]]X]]]]]]]]]]]]]]]]]]]]]]]]]]]]]]]]]",
"]]]]]]]]]]]]]]]]]]]]]]]]]]]]ryyyr]]]]]]]]]]]]]]]]]]]]]]]]]]]]]]]",
"]]]]]]]]]]]]]]]]]]]]]]]]]]]ifjjgzi]]]]]]]]]]]]]]]]]]]]]]]]]]]]]]",
"]]]]]]]]]]]]]]]]]]]]]]]]]]uzjggggf]]]]]]]]]]]]]]]]]]]]]]]]]]]]]]",
"]]]]]]]]]]]]]]]]]]]]]]]]]]ajgggggfr]]]]]]]]]]]]]]]]]]]]]]]]]]]]]",
"]]]]]]]]]]]]]]]]]]]]]]]]]]isshfhaay]]]]]]]]]]]]]]]]]]]]]]]]]]]]]",
"]]]]]]]]]]]]]]]]]]]]]]]]]]Q^^Wx!^~R]]]]]]]]]]]]]]]]]]]]]]]]]]]]]",
"]]]]]]]]]]]]]]]]]]]]]]]]]]^^)~C)//^]]]]]]]]]]]]]]]]]]]]]]]]]]]]]",
"]]]]]]]]]]]]]]]]]]]]]]]]]]^''Wd~')~]]]]]]]]]]]]]]]]]]]]]]]]]]]]]",
"]]]]]]]]]]]]]]]]]]]]]]]]]]E^~NlM~~T]]]]]]]]]]]]]]]]]]]]]]]]]]]]]",
"]]]]]]]]]]]]]]]]]]]]]]]]]eypbnmmnpy]]]]]]yrw]]]]]]]]]]]]]]]]]]]]",
"]]]]]]]]]]]]]]]]]wyw]]]]]]tmBZCCZme]]]]]isyp]]]]]]]]]]]]]]]]]]]]",
"]]]]]]]]]]]]]]]]wyss]]]]]]bNCCZCCM0 =]]+zziw]]]]]]]]]]]]]]]]]]]]",
"]]]]]]]]]]]]]]]]wishbDA@:-nCCMbBCNv=#DDDpzk]]]]]]]]]]]]]]]]]]]]]",
"]]]]]]]]]]]]]]]]]uskUJHD%:vNCm0NCBt:DPLP*be]]]]]]]]]]]]]]]]]]]]]",
"]]]]]]]]]]]]]]]]]]pYJLLP$;emNMnBBMi#FLLLGD-::-]]]]]]]]]]]]]]]]]]",
"]]]]]]]]]]]]]]]]]]XDLLLLDXesmmNMdca#FLLLJ<57,>,]]]]]]]]]]]]]]]]]",
"]]]]]]]]]]]]]]]]]:1#FHLLFOvdxlddxxp+JGHJ#76669,,]]]]]]]]]]]]]]]]",
"]]]]]]]]]]]]]]]]:,25<$JGPHD$*vvvI%JLDDD<766665>>2-]]]]]]]]]]]]]]",
"]]]]]]]]]]]]]]]->256630$HLHD#0v0X#JLHA<566657;]];:]]]]]]]]]]]]]]",
"]]]]]]]]]]]]]]];>256667#DLH@<eir8q+LGD<56667:]]]]]]]]]]]]]]]]]]]",
"]]]]]]]]]]]]]]=]]],4669SLLLS<9eeqvDLLG#9662:]]]]]]]]]]]]]]]]]]]]",
"]]]]]]]]]]]]]]]]]]]]25<FLLLG$0qq<$GLLLS<2,]]]]]]]]]]]]]]]]]]]]]]",
"]]]]]]]]]]]]]]]]]]]]]2<LLLLLG$00$GLLLLSX]]]]]]]]]]]]]]]]]]]]]]]]",
"]]]]]]]]]]]]]]]]]]]]]].FLLLLLGDDLPLLLLA]]]]]]]]]]]]]]]]]]]]]]]]]",
"]]]]]]]]]]]]]]]]]]]]]]]SLLLLLLHHLLLLHS]]]]]]]]]]]]]]]]]]]]]]]]]]",
"]]]]]]]]]]]]]]]]]]]]]]]]SJJJLLLLLJJDO]]]]]]]]]]]]]]]]]]]]]]]]]]]",
"]]]]]]]]]]]]]]]]]]]]]]]]]oX$FJJJ*%X0.]]]]]]]]]]]]]]]]]]]]]]]]]]]",
"]]]]]]]]]]]]]]]]]]]]]]]]]]-:00veqv#+]]]]]]]]]]]]]]]]]]]]]]]]]]]]",
"]]]]]]]]]]]]]]]]]]]]]]]]]]ADS#X:#SFA]]]]]]]]]]]]]]]]]]]]]]]]]]]]",
"]]]]]]]]]]]]]]]]]]]]]]]]]]]A$%#O%%A]]]]]]]]]]]]]]]]]]]]]]]]]]]]]",
"]]]]]]]]]]]]]]]]]]]]]]]]]]]]-22;5;]]]]]]]]]]]]]]]]]]]]]]]]]]]]]]",
"]]]]]]]]]]]]]]]]]]]]]]]]]]]]]56:5]]]]]]]]]]]]]]]]]]]]]]]]]]]]]]]",
"]]]]]]]]]]]]]]]]]]]]]]]]]]]]];;=;]]]]]]]]]]]]]]]]]]]]]]]]]]]]]]]",
"]]]]]]]]]]]]]]]]]]]]]]]]]]]]]]]]]]]]]]]]]]]]]]]]]]]]]]]]]]]]]]]]",
"]]]]]]]]]]]]]]]]]]]]]]]]]]]]]]]]]]]]]]]]]]]]]]]]]]]]]]]]]]]]]]]]",
"]]]]]]]]]]]]]]]]]]]]]]]]]]]]]]]]]]]]]]]]]]]]]]]]]]]]]]]]]]]]]]]]",
"]]]]]]]]]]]]]]]]]]]]]]]]]]]]]]]]]]]]]]]]]]]]]]]]]]]]]]]]]]]]]]]]",
"]]]]]]]]]]]]]]]]]]]]]]]]]]]]]]]]]]]]]]]]]]]]]]]]]]]]]]]]]]]]]]]]",
"]]]]]]]]]]]]]]]]]]]]]]]]]]]]]]]]]]]]]]]]]]]]]]]]]]]]]]]]]]]]]]]]",
"]]]]]]]]]]]]]]]]]]]]]]]]]]]]]]]]]]]]]]]]]]]]]]]]]]]]]]]]]]]]]]]]",
"]]]]]]]]]]]]]]]]]]]]]]]]]]]]]]]]]]]]]]]]]]]]]]]]]]]]]]]]]]]]]]]]",
"]]]]]]]]]]]]]]]]]]]]]]]]]]]]]]]]]]]]]]]]]]]]]]]]]]]]]]]]]]]]]]]]",
"]]]]]]]]]]]]]]]]]]]]]]]]]]]]]]]]]]]]]]]]]]]]]]]]]]]]]]]]]]]]]]]]",
"]]]]]]]]]]]]]]]]]]]]]]]]]]]]]]]]]]]]]]]]]]]]]]]]]]]]]]]]]]]]]]]]",
"]]]]]]]]]]]]]]]]]]]]]]]]]]]]]]]]]]]]]]]]]]]]]]]]]]]]]]]]]]]]]]]]",
"]]]]]]]]]]]]]]]]]]]]]]]]]]]]]]]]]]]]]]]]]]]]]]]]]]]]]]]]]]]]]]]]",
"]]]]]]]]]]]]]]]]]]]]]]]]]]]]]]]]]]]]]]]]]]]]]]]]]]]]]]]]]]]]]]]]",
"]]]]]]]]]]]]]]]]]]]]]]]]]]]]]]]]]]]]]]]]]]]]]]]]]]]]]]]]]]]]]]]]"
};
