/* XPM */
static char *wall[] = {
/* columns rows colors chars-per-pixel */
"64 64 79 1 ",
"  c gray39",
". c #646363",
"X c #656363",
"o c #656564",
"O c #656565",
"+ c #666565",
"@ c #676565",
"# c #686463",
"$ c #696463",
"% c #696565",
"& c #6A6565",
"* c #6B6565",
"= c #766463",
"- c #776563",
"; c #766664",
": c #776664",
"> c #786664",
", c #796664",
"< c #786665",
"1 c #8B6663",
"2 c #8D6764",
"3 c #8F6864",
"4 c #986762",
"5 c #996762",
"6 c #9A6762",
"7 c #906864",
"8 c #9A6863",
"9 c #9B6863",
"0 c #9C6963",
"q c #9D6963",
"w c #9E6963",
"e c #9C6964",
"r c #9D6964",
"t c #B46A61",
"y c #B56A61",
"u c #B96B62",
"i c #B86B63",
"p c #BA6B62",
"a c #BA6B63",
"s c #BB6B63",
"d c #BD6B61",
"f c #BF6B61",
"g c #BC6B62",
"h c #BA6C63",
"j c #BB6C63",
"k c #BC6C63",
"l c #BD6C63",
"z c #DF6E5F",
"x c #E06D5F",
"c c #E16E5E",
"v c #E26E5E",
"b c #E26E5F",
"n c #E36E5F",
"m c #E46F5F",
"M c #E56F5F",
"N c #C26C62",
"B c #C36C62",
"V c #C46C62",
"C c #C56C62",
"Z c #C56D62",
"A c #C46D63",
"S c #C56D63",
"D c #CB6C60",
"F c #D16E62",
"G c #D36E62",
"H c #E77061",
"J c #E87060",
"K c #E97060",
"L c #E87061",
"P c #E97061",
"I c #EA7060",
"U c #EB7060",
"Y c #EA7061",
"T c #EB7061",
"R c #EA7161",
"E c #EB7161",
"W c #EC7161",
"Q c #ED7161",
"! c None",
/* pixels */
"!!JQQQQQQQQEQQQQQEQQQQQQQQQEQ!!!!!!QQQQQQEQQQQQEQQQQQQQQQEQQQQ!!",
"!JQQQJJQQQQJEQQQJEQQQHEQQEHQQQ!!!!QJJQQQQHEQQQJEQQQHEQQEMQQQQHQ!",
"mJQQQMQQQQMQQQEHEQQQmQQQJHJQQJoOo*JHQQQJMEQQEMEQQEMEQQEMQQQEMQQQ",
"QQQQHJQQJHJQQEMJQQEmJQQQHQQQJb*Oo*mQQQJHEQQEMEQQEMEQQEMEQQEMEQQJ",
"QQJMQQQJMEQQEMEQQEmEQQEmJQQJHJ*OooJQQJHJQQEMEQQEMEQQEMEQQEMEQQEM",
"QJHJQQQMEQQEMEQQQmEQQQmEQQQMJQ*Oo*QQQHQQQEMEQQEMEQQEMEQQEMEQQEME",
"QHQQQJHQQQEMEQQEmEQQEmEQQJHQQQ* o*JQHQQQEMEQQEMEQQEMEQQEMEQQEMEQ",
"mJQQQMJQQEMEQQEMEQQQmEQQQHJQQJ*Oo*JHJQQJMEQQEMEQQEMEQQEMEQQEMEQQ",
"EQQEMEQQEMEQQEMEQQEmEQQEmEQQJn*Oo*nJQQQHJQQQMEQQEMEQQEMEQQEMEQQE",
"QQEMEQQEMEQQEMEQQEmQQQQmQQQEmm*O+oEQQJHJQQJHEQQEMEQQEMEQQEMEQQEm",
"QEMEQQEMEQQEMEQQQmEQQQmEQQQmQQ*OO%EQQmJQQQHJQQEMEQQEMEQQEMEQQEME",
"EMEQQEMEQQEMEQQEmEQQEmEQQEmEQE* O%EEmQQQJMQQQEMEQQEMEQQEMEQQEMEQ",
"MEQQEMEQQEMEQQEMEQQEmEQQEmQQQTOoO%TmJQQQHJQQQMEQQEMEQQEMEQQEMEQQ",
"EQQEMEQQEMEQQEMEQQEmQQQEmEQQQm*oO%bQQQQmQQQQHJQQEMEQQEMEQQEMEQQE",
"QQEMEQQEMEQQEMEQQEmEQQQmEQQEHJ*oO$TTQQmJQQJMJQQQMEQQEMEQQEMEQQEm",
"QEMEQQEMEQQEMEQQQmEQQEmEQQEmJJ*oO%TTQmQQQQHJQQQMEQQEMEQQEMEQQEME",
"EMEQQEMEQQEmEQQEmEQQEmEQQQHQQJ* o*QQmEQQEMEQQQMQQQEMEQQEMEQQEMEQ",
"mEQQEMEQQEmQQQQmEQQEmQQQJmJQQJoOo*QMQQQQMEQQJMJQQEMEQQEMEQQEMEQQ",
"EQQEMEQQQmEQQQmEQQEmEQQEHQQQQz*Oo*GQQQQmEQQEHQQQEMEQQEMEQQEMEQQE",
"QQEMEQQEmEQQEmEQQEmQQQQmJQQJHhOOo sQQEmJQQQMJQQJMEQQEMEQQEMEQQEM",
"!!48eew88rr888rrr888rr888rr43ooo O+3888re088eew88eew88wer80eew!!",
"!!oOOO oOO+ o++o ++O+ ooOOOO+oo ++++ OooOoooOOooOOO OOOO ooOO !!",
"!!OOOOooOO O+Oo o+OO O+OO OO+OooOOO OOOOO+ooO OOOO OOOO ooOO O!!",
"!!OOOoooO OOOO oOOO OOOO OOOOOOOOO OOOO O+oo OOOO OOOO OooO OO!!",
"QQAgSSh,oooo<yAAAAsBSSNlSSSNlSNNAsAAAAgSSNNlSSANgAh<O OO,ilAAAJb",
"QJmQQQJDoo++DJQQEnJQQJMJQQJMEQQQmJQQJmQQQQMEQQEMQQQF OOoDHEQQJHQ",
"JHJQQJHJ%++oJQQJmQQQQMQQQJMQQQEMJQQQmQQQJHJQQQMQQQJn*Oo*HJQQJMJQ",
"HQQQQHJJ%o *QQQmJQQQHJQQQMQQQEMEQQQmQQQJMQQQJMJQQJnH*OooJQQQHQQQ",
"JQQJHQQQ%OO%TTmQQQJMJQQJMEQQEMEQQQHJQQQmQQQQHQQQQmJQ*O *EQJHJQQQ",
"QQQMJQQJ%oO%TmQQQQHQQQQHEQQEMEQQQMJQQJmQQQJHJQQJmQQQ*OO*EEMQQQJM",
"QJHJQQJM%OO%mQQQQHJQQJMJQQEMEQQEMJQQJHQQQJHJQQJHEQQJooo*JHQQQQHQ",
"QMQQQQHJ%OO%TTQJHJQQQHQQQEMEQQEMQQQQHJQQQHJQQQHEQQEn*oo*MJQQJMJQ",
"mEQQEmQJ%OO%EQQmEQQEmEQQEmEQQQmEQQQMJQQQmQQQEmEQQQmE%OO$TTQJmQQQ",
"EQQQmQQQ% O%EEmEQQEmEQQQmEQQEmEQQJMQQQJHEQQEmEQQEmEE%O.%TTQmQQQJ",
"QQEmQQQJ%O+%PmEQQEmQQQEmQQQEmEQQQHJQQEMQQQQmQQQEmEQE%O+%QJmQQQQm",
"QEmEQQJn%O+%nQQQQmEQQEmEQQQmEQQQHJQQEMEQQEmEQQEmEQEEO++%TmQQQQHJ",
"EmEQQJmT%OO$PQQEmEQQEmQQQEmQQQEmEQQEMEQQQmEQQQmQQQQn%+o%mQQQJHQQ",
"mEQQQmQQ*O.%EQEmEQQEmEQQEmEQQQmEQQEMEQQEmEQQJmQQQEmP%+o%JQQJHJQQ",
"EQQEmQTT%.O%EEmEQQEmEQQQmEQQQmJQQEMEQQEMEQQEmQQQEmQE%+ %JQQMQQQJ",
"QQQmQQQG.OOOFmEQQEmQQQEmEQQEmQQTEMEQQEMEQQEmQQQJmEQF+ ++GQHJQQJH",
"QJlAAAs;OOOO;iAAABBAAAgCAAAlBAAAlSSSNgSSSCgCAAAlAAh; +oo,yAAAAGT",
"!!OOoo oO+O ooOO OOOO OOOO +ooO oooo Oooo ooOO +o++ OoooOoOOo !!",
"!!++O o+++oo+OO OOOO.OOOO ++++ OoooOOOOO +ooO O++O OOOo o++OOo!!",
"!!++ +++o ooOO OOOO OOOO ++++ +++o oOOOO++++ OO+O OOOOOoooO o*!!",
"!!8888r880rr88rrrr4rer44rr881oOOO +3888r8888r8r848rr8480r84rrr!!",
"QEmEQQEmJQQJHJQQJmJQTTmQQQEmTsOO OlEJHQQQEmEQQQmEEQEHQQQJHJQQJmQ",
"EmEQQEmQQQJHJQQJmQQQQmQQQEmQQm% O%HEHQQQEmEQQQmEQQEmQQQQHQQQQmQQ",
"nQQQEmEQQQMQQQQmQQQQmJQQEmQQQP%+O%EnJQQJmQQQEmEQQEmEQQJMJQQQmJQQ",
"EQQEHJQQJHQQQJMEQQEmEQQEmEQQEn%+o*nEQQQmEQQQmEQQEmEQQEmEQQEmQQQE",
"QQQmQQQQMQQQQHEQQEmQQQQmEQQEmP%+oOEQQEmEQQEmQQQEmQQQEmQQQEmEQQEm",
"QQmEQQJHJQQJMEQQQmEQQQmEQQEmEE%o %EQEmEQQEmEQQQmEQQEmQQQEmQQQQmE",
"EmEQQJMQQQQMEQQEmEQQEmEQQEmQQQ% +%EEmQQQEmEQQEmEQQQmEQQEmEQQEmEQ",
"nEQQQHQQQEMEQQEMEQQEmEQQEmEQQP%o+%PmEQQEmEQQQmEQQEmEQQQmEQQQmEQQ",
"EQQJHJQQEMEQQEMEQQEmQQQEmQQQEn%++%nQQQEmQQQEmEQQEmEQQEmEQQEmEQQE",
"QQEHJQQJMEQQEMEQQEmEQQQmEQQQmP%+O%PQQEmEQQEmEQQEmEQQEmEQQEmEQQEm",
"QEHJQQQMEQQEMEQQQmEQQEmEQQEmEE%+ %EQQmEQQQmEQQEmQQQEmQQQEmEQQQmE",
"EMEQQEMQQQEMEQQEmQQQEmEQQQmEQJ% O%TJmQQQQmEQQEmQQQEmEQQEmQQQEmQQ",
"MEQQEMEQQEMEQQEMEQQEmEQQEmEQQT*+O%TmQQQJmEQQQmEQQQmEQQEmEQQQmEQQ",
"EQQEMEQQEMEQQEMEQQQmQQQEmEQQJm%+O%mTQQQmEQQEmEQQEmEQQEmQQQEmEQQE",
"QQEMEQQJMEQQEMEQQEmEQQEmEQQEmE%+O%TTQQmQQQEmEQQEmEQQQmEQQEmEQQEm",
"QQMEQQEHEQQEMEQQEmEQQEmEQQEmQJ*oO%EQJmQQQEmEQQEmQQQEmEQQEmEQQEmQ",
"JMEQQQHJQQEMEQQEmEQQEmQQQEmQQQ%oo%EEmQQQEmQQQEmEQQEmQQQEmEQQEmEQ",
"MEQQQJQQQEJQQQQHEQQQTJQQJTEQQJ*oo%EJQQQQTJQQQTEQQQJEQQQHQQQEJEQQ",
"!QQQJQQQQJQQQQJQQQQEQQQQEQQQQJ!!!!JQQQQJQQQQEJQQQEQQQQJQQQQEQQQ!"
};
