/* XPM */
static char *homer1[] = {
/* columns rows colors chars-per-pixel */
"64 64 8 1 ",
"  c #0E0D0E",
". c #D4A139",
"X c #FFD900",
"o c #288EBC",
"O c #FDE88A",
"+ c #DBD5D4",
"@ c white",
"# c None",
/* pixels */
"################################################################",
"################################################################",
"################################################################",
"################################################################",
"################################################################",
"################################################################",
"################################################################",
"################################################################",
"################################################################",
"################################################################",
"############################ooo#o###############################",
"##########################o#o#o##o##############################",
"###########################o..XXXX.#############################",
"#########################o...XXXXXX..###########################",
"#########################....XXXXXXXO.##########################",
"########################....XXXXXXXXXO##########################",
"########################....XXXXXXXXXO.#########################",
"########################....XXXXXXXXXX.#########################",
"#######################.....XXXXXXXXXXO#########################",
"#######################o....XXXXXXXXXXO.########################",
"########################.....++@+O.+@@+.########################",
"########################....+@@@@@+@@@@+########################",
"#########...############....@@@@@@+@@@+@#############...########",
"######.....X.###########...+@++@@@+@@@+@############..X...######",
"######.XXX...###########o...@@@@@@++O.++###########.....XX.#####",
"####....X..XX.##########o...+@@@@+.XXX..###########.XXX.X...####",
"####.XXX..XXX.###########....O++OXXXX...##########..XXX...XX.###",
"####..XX.XXOXO###########....XX.......O.##########..X.O..XX..###",
"####...X....XO##########.X...............oo#######..X....X..o###",
"####.....X.XXXO#########..................O######...X.XXX.X.####",
"#####....XXXXXO.########...................#####...XXXXXXXO#####",
"######...XXXXXXO.########.................#####...XXXXXXO.######",
"#######...XXXXXXX.########................###....XXXXXXXO#######",
"#######o...XXXXXXXO#######..............####....XXXXXXXO########",
"########...XXXXXXXXO.#####.............####....XXXXXXXO.########",
"#########...XXXXXXXXO.####............###+....XXXXXXXO.#########",
"##########...XXXXXXXXX.o##...........##+++...XXXXXXXO.##########",
"###########...XXXXXXXXX.+o...++++.XXOoo++++.XXXXXXXO.###########",
"############...XXXXXXXXO@++++@@@++XXO+++++@@+XXXXXXO############",
"############o...XXXXXXX+@@++@@@@+@+XO+@++@@@@+XXXXO#############",
"#############....XXXXX.@@@@+@@@+@@@..+@@+@@@@@.XXO##############",
"##############....XXXX+@@@@+++++@@@++@+@+@@@@@+.O.##############",
"###############....XX+@@@@@@+@@@@@@@@@++@@@@@@@+.###############",
"################ ...+@@@@@@@+@@@@@@@@@@+@@@@@@@+################",
"#################o..+@@@@@@@@@@@@@@@@@@+@@@@@@@+################",
"##################+++@@@@@@@@@@@@@@@@@@@+@@@@++#################",
"##################o++++@@@@@@@@@@@@@@@@@+@@++###################",
"####################++++@@@@@@@@@@@@@@@@+++#####################",
"######################o+++@@@@@@@@@@@@@@@+######################",
"######################o++@@@@@@@@@@@@@@@@@+#####################",
"######################++@@@@@@@@@@@@@@@@@@@+####################",
"#####################+++@@@@@@@@@@@@@@@@@@@@####################",
"####################+++@@@@@@@@@@@@@@@@@@@@@+###################",
"###################o+++@@@@@@@@@@@@@@@@@@@@@@o##################",
"###################++++@@@@@@@@@@@@@@@@@@@@@@+##################",
"##################++++@@@@@@@@@@@@@@@@@@@@@@@@##################",
"##################++++@@@@@@@@@@@@@@@@@@@@@@@@+#################",
"#################+++++@@@@@@@@@@@@@@@@@@@@@@@@+#################",
"#################+++++@@@+++...........+++@@@@+#################",
"#################++++++....XXXXXXXX.XXXXX..++@+#################",
"################o+++oooooo....XXXXXXXXXXXX..oo+#################",
"#################oooooooooooooooooooooooooooooo#################",
"################################################################",
"################################################################"
};
