/* XPM */
static char *homer2[] = {
/* columns rows colors chars-per-pixel */
"64 64 7 1 ",
"  c #D4A139",
". c #FFD900",
"X c #288EBC",
"o c #FDE88A",
"O c #DBD5D4",
"+ c white",
"@ c None",
/* pixels */
"@@@@@@@@@@@@@@@@@@@@@@@@@@@@@@@@@@@@@@@@@@@@@@@@@@@@@@@@@@@@@@@@",
"@@@@@@@@@@@@@@@@@@@@@@@@@@@@@@@@@@@@@@@@@@@@@@@@@@@@@@@@@@@@@@@@",
"@@@@@@@@@@@@@@@@@@@@@@@@@@@@@@@@@@@@@@@@@@@@@@@@@@@@@@@@@@@@@@@@",
"@@@@@@@@@@@@@@@@@@@@@@@@@@@@@@@@@@@@@@@@@@@@@@@@@@@@@@@@@@@@@@@@",
"@@@@@@@@@@@@@@@@@@@@@@@@@@@@@@@@@@@@@@@@@@@@@@@@@@@@@@@@@@@@@@@@",
"@@@@@@@@@@@@@@@@@@@@@@@@@@@@@@@@@@@@@@@@@@@@@@@@@@@@@@@@@@@@@@@@",
"@@@@@@@@@@@@@@@@@@@@@@@@@@@@@@@@@@@@@@@@@@@@@@@@@@@@@@@@@@@@@@@@",
"@@@@@@@@@@@@@@@@@@@@@@@@@@@@@@@@@@@@@@@@@@@@@@@@@@@@@@@@@@@@@@@@",
"@@@@@@@@@@@@@@@@@@@@@@@@@@@@@@@@@@@@@@@@@@@@@@@@@@@@@@@@@@@@@@@@",
"@@@@@@@@@@@@@@@@@@@@@@@@@@@@@@@@@@@@@@@@@@@@@@@@@@@@@@@@@@@@@@@@",
"@@@@@@@@@@@@@@@@@@@@@@@@@@@@OXX@X@@@@@@@@@@@@@@@@@@@@@@@@@@@@@@@",
"@@@@@@@@@@@@@@@@@@@@@@@@@@X@O@X@@O@@@@@@@@@@@@@@@@@@@@@@@@@@@@@@",
"@@@@@@@@@@@@@@@@@@@@@@@@@X@X  .... @@@@@@@@@@@@@@@@@@@@@@@@@@@@@",
"@@@@@@@@@@@@@@@@@@@@@@@@@X   ......  @@@@@@@@@@@@@@@@@@@@@@@@@@@",
"@@@@@@@@@@@@@@@@@@@@@@@@@    .......oO@@@@@@@@@@@@@@@@@@@@@@@@@@",
"@@@@@@@@@@@@@@@@@@@@@@@@    .........o@@@@@@@@@@@@@@@@@@@@@@@@@@",
"@@@@@@@@@@@@@@@@@@@@@@@@    .........o @@@@@@@@@@@@@@@@@@@@@@@@@",
"@@@@@@@@@@@@@@@@@@@@@@@@    .......... @@@@@@@@@@@@@@@@@@@@@@@@@",
"@@@@@@@@@@@@@@@@@@@@@@@X    ..........o@@@@@@@@@@@@@@@@@@@@@@@@@",
"@@@@@@@@@@@@@@@@@@@@@@@X    ..........o @@@@@@@@@@@@@@@@@@@@@@@@",
"@@@@@@@@@@@@@@@@@@@@@@@@     OO+O  O++O @@@@@@@@@@@@@@@@@@@@@@@@",
"@@@@@@@@@@@@@@@@@@@@@@@@    O+++++O++++O@@@@@@@@@@@@@@@@@@@@@@@@",
"@@@@@@@@@@@@@@@@@@@@@@@@    ++++++O+++OO@@@@@@@@@@@@@@@@@@@@@@@@",
"@@@@@@@@@@@@@@@@@@@@@@@@   O+OO+++O+++++@@@@@@@@@@@@@@@@@@@@@@@@",
"@@@@@@@@@@@@@@@@@@@@@@@@X   ++++++OOooOO@@@@@@@@@@@@@@@@@    @@@",
"@@@@@  @@@@@@@@@@@@@@@@@X   O++++O ...  @@@@@@@@@@@@@@@@  .   @@",
"@@@@  . @@@@@@@@@@@@@@@@@    oOOO....   @@@@@@@@@@@@@@@  .  ..@@",
"@@ ..     @@@@@@@@@@@@@@@    ..         O@X @@@@@@@@@@  ...   @@",
"@@ ..  .. @@@@@@@@@@@@@@     .              @@@@@@@@@@ . ..  .@@",
"@@  . .. . @@@@@@@@@@@@@                    @@@@@@@@@@ . oo ..@@",
"@@..  .o . @@@@@@@@@@@@@                    @@@@@@@@@  ..   . @@",
"@@...   ..oo @@@@@@@@@@@@                   @@@@@@@O   . ...  @@",
"@@ .  . ....oo@@@@@@@@@@@@                 @@@@@@@    .......o@@",
"@@    ........o @@@@@@@@@@               @@@@@@@     .......o @@",
"@@     .........oo@@@@@@@@              @@@@@@O    ........o@@@@",
"@@@     ..........o @@@@@@             @@@@@      ........o@@@@@",
"@@@@@    ...........  XX@@            @@OOX     .........o@@@@@@",
"@@@@@@     ............OOX   OOOO ..o OXOOOO  ..........o@@@@@@@",
"@@@@@@@@     ..........O+OOOO+++OO .oOOOOOOOO.........oo@@@@@@@@",
"@@@@@@@@@     ........ +++OO++++O+O.oX++OO+++O.......oo@@@@@@@@@",
"@@@@@@@@@@@     ......O++++O+++OO++O OO+O+++++ .....o @@@@@@@@@@",
"@@@@@@@@@@@@     .... +++++OOOOO++++O+O+O+++++O...oo @@@@@@@@@@@",
"@@@@@@@@@@@@@@    ...O++++++O++++++++++O+++++++ .o @@@@@@@@@@@@@",
"@@@@@@@@@@@@@@@      +++++++O++++++++++O+++++++Oo@@@@@@@@@@@@@@@",
"@@@@@@@@@@@@@@@@X   O++++++++++++++++++O+++++++O@@@@@@@@@@@@@@@@",
"@@@@@@@@@@@@@@@@@X OO++++++++++++++++++OO+++++OO@@@@@@@@@@@@@@@@",
"@@@@@@@@@@@@@@@@@@XOOO++++++++++++++++++O+++OO@@@@@@@@@@@@@@@@@@",
"@@@@@@@@@@@@@@@@@@@ OOOO++++++++++++++++OOOX@@@@@@@@@@@@@@@@@@@@",
"@@@@@@@@@@@@@@@@@@@@@@XOOO++++++++++++++OO@@@@@@@@@@@@@@@@@@@@@@",
"@@@@@@@@@@@@@@@@@@@@@@XOO+++++++++++++++++O@@@@@@@@@@@@@@@@@@@@@",
"@@@@@@@@@@@@@@@@@@@@@@OO+++++++++++++++++++O@@@@@@@@@@@@@@@@@@@@",
"@@@@@@@@@@@@@@@@@@@@@OOO+++++++++++++++++++O@@@@@@@@@@@@@@@@@@@@",
"@@@@@@@@@@@@@@@@@@@@OOO+++++++++++++++++++++O@@@@@@@@@@@@@@@@@@@",
"@@@@@@@@@@@@@@@@@@@OOOO++++++++++++++++++++++O@@@@@@@@@@@@@@@@@@",
"@@@@@@@@@@@@@@@@@@@OOOO++++++++++++++++++++++O@@@@@@@@@@@@@@@@@@",
"@@@@@@@@@@@@@@@@@@OOOO++++++++++++++++++++++++@@@@@@@@@@@@@@@@@@",
"@@@@@@@@@@@@@@@@@@OOOO++++++++++++++++++++++++O@@@@@@@@@@@@@@@@@",
"@@@@@@@@@@@@@@@@@OOOOO++++++++++++++++++++++++O@@@@@@@@@@@@@@@@@",
"@@@@@@@@@@@@@@@@@OOOOO+++OOO           OOO++++O@@@@@@@@@@@@@@@@@",
"@@@@@@@@@@@@@@@@@OOOOOO    ........ .....  OO+O@@@@@@@@@@@@@@@@@",
"@@@@@@@@@@@@@@@@XOOOXXXXXX    ............  XXO@@@@@@@@@@@@@@@@@",
"@@@@@@@@@@@@@@@@@XXXXXXXXXXXXXXXXXXXXXXXXXXXXXX@@@@@@@@@@@@@@@@@",
"@@@@@@@@@@@@@@@@@@@@@@@@@@@@@@@@@@@@@@@@@@@@@@@@@@@@@@@@@@@@@@@@",
"@@@@@@@@@@@@@@@@@@@@@@@@@@@@@@@@@@@@@@@@@@@@@@@@@@@@@@@@@@@@@@@@"
};
