/* XPM */
static char *burn3[] = {
/* columns rows colors chars-per-pixel */
"64 64 52 1 ",
"  c black",
". c #240000",
"X c #242400",
"o c #492400",
"O c #6D4900",
"+ c #6D6D00",
"@ c #002455",
"# c #242455",
"$ c #492455",
"% c #004955",
"& c #244955",
"* c #494955",
"= c #6D4955",
"- c #496D55",
"; c #6D6D55",
": c #63436D",
"> c #926D00",
", c #924955",
"< c #926D55",
"1 c #B66D55",
"2 c #929200",
"3 c #B69200",
"4 c #B6B600",
"5 c #DB9200",
"6 c #DBB600",
"7 c #FFB600",
"8 c #929255",
"9 c #B69255",
"0 c #B6B655",
"q c #DB9255",
"w c #DBB655",
"e c #7C6184",
"r c #797982",
"t c #496DAA",
"y c #836A8B",
"u c #6D92AA",
"i c #6DB6AA",
"p c #6DB6FF",
"a c #9D8694",
"s c #B6A19C",
"d c #9292AA",
"f c #B692AA",
"g c #92B6AA",
"h c #B6B6AA",
"j c #B8B8BD",
"k c #92B6FF",
"l c #C2B9C1",
"z c #D3C3C3",
"x c #DFD2D5",
"c c #DBDBFF",
"v c #E6DDE0",
"b c None",
/* pixels */
"bbbbbbbbbbbbbbbbbbbbbbbbbbbbbbbbbbbbbbbbbbbbbbbbbbbbbbbbbbbbbbbb",
"bbbbbbbbbbbbbbbbbbbbbb1qqqqwwwqbbbbbbbbbbbbbbbbbbbbbbbbbbbbbbbbb",
"bbbbbbbbbbbbbbbbbbbbqw7776666666ww9bbbbbbbbbbbbbbbbbbbbbbbbbbbbb",
"bbbbbbbbbbbbbbbbb9w6667676677777666w9bbbbbbbbbbbbbbbbbbbbbbbbbbb",
"bbbbbbbbbbbbbbbbq66767777776777666666wbbbbbbbbbbbbbbbbbbbbbbbbbb",
"bbbbbbbbbbbbbb1w6667777777766776967777wbbbbbbbbbbbbbbbbbbbbbbbbb",
"bbbbbbbbbbbbb1w6666777777776667666777766bbbbbbbbbbbbbbbbbbbbbbbb",
"bbbbbbbbbbbbbw666666677777777777777637776bbbbbbbbbbbbbbbbbbbbbbb",
"bbbbbbbbbbbbq76666666777777777677776967776bbbbbbbbbbbbbbbbbbbbbb",
"bbbbbbbbbbb16666666667677777776677766777779bbbbbbbbbbbbbbbbbbbbb",
"bbbbbbbbbbbq7666666666777777764967777776763bbbbbbbbbbbbbbbbbbbbb",
"bbbbbbbbbb166666666666667777766677777768gggydbbbbbbbbbbbbbbbbbbb",
"bbbbbbbbbb96666676666667777767667777779kkkkukkuebbbbbbbbbbbbbbbb",
"bbbbbbbbbb966666666666766666qss97777778kkkkukkigubbbbbbbbbbbbbbb",
"bbbbbbbbbb9666766676666666slccch677777akkkkukkkikrbbbbbbbbbbbbbb",
"bbbbbbbbbb16667666666530hxcccccs677776apkkkukkpikdbbbbbbbbbbbbbb",
"bbbbbbbbbbbw666666366w9ccccjcclw77777wdkkuugkkpikibbbbbbbbbbbbbb",
"bbbbbbbbbbb15w9shl97769zccxrxj96777776gkku00dkukkurbbbbbbbbbbbbb",
"bbbbbbbbbbbblccccjw76669sjjs9w66777779kkka66wdukkuubbbbbbbbbbbbb",
"bbbbbbbbbbbbjcdlj96776669366539w67776akkk89979kkkurbbbbbbbbbbbbb",
"bbbbbbbbbbbb<d<9w66677666w66w66777676rpkk97679kkiibbbbbbbbbbbbbb",
"bbbbbbbbbbbb9w6655667677666666667677769aaw776gkkuubbbbbbbbbbbbbb",
"bbbbbbbbbb9w6666ww36767666666666666777766359dkkuirbbbbbbbbbbbbbb",
"bbbbbbbbbq666666663w66776666676667777776668kkkuuubbbbbbbbbbbbbbb",
"bbbbbbbb9666666663966666766666763677777676akpuuubbbbbbbbbbbbbbbb",
"bbbbbbb966665339w666666666766669s977777663uutrbbbbbbbbbbbbbbbbbb",
"bbbbbbbq663bbw66666666666666669h9w6666675bbbbbbbbbbbbbbbbbbbbbbb",
"bbbbbbbw3bbb96666667666666669hj9w6667666bbbbbbbbbbbbbbbbbbbbbbbb",
"bbbbbbbbbbbbw66666666666669slj9w6666776bbbbbbbbbbbbbbbbbbbbbbbbb",
"bbbbbbbbbbbq6666666666669szs9w666666763bbbbbbbbbbbbbbbbbbbbbbbbb",
"bbbbbbbbbb9666666666659js99w6666666676bbbbbbbbbbbbbbbbbbbbbbbbbb",
"bbbbbbbbbbb3666639sshfjaq6666666666666bbbbbbbbbbbbbbbbbbbbbbbbbb",
"bbbbbbbbbbbbbb;fjdfdbb<666666666666666bbbbbbbbbbbbbbbbbbbbbbbbbb",
"bbbbbbbbbbbbbbbbbbbbbbbb3666666666666wbbbbbbbbbbbbbbbbbbbbbbbbbb",
"bbbbbbbbbbbbbbbbbbbbbbbbb1666666666666=bbbbbbbbbbbbbbbbbbbbbbbbb",
"bbbbbbbbbbbbbbbbbbbbbbbbbbq666666666668&&bbbbbbbbbbbbbbbbbbbbbbb",
"bbbbbbbbbbbbbbbbbbbbbbbbbbb667676676676;&&bbbbbbbbbbbbbbbbbbbbbb",
"bbbbbbbbbbbbbbbbbbbbbbbbbbb967666666666hr&#bbbbbbbbbbbbbbbbbbbbb",
"bbbbbbbbbbbbbbbbbbbbbbbbbbb&9666666666sxd&&&&#bbbbbbbbbbbbbbbbbb",
"bbbbbbbbbbbbbbbbbbbbbbbbbb*&=666666669xcl&&&&&&bbbbbbbbbbbbbbbbb",
"bbbbbbbbbbbbbbbbbbbbbbqw>6www33366669xccl&&&&&&&bbbbbbbbbbbbbbbb",
"bbbbbbbbbbbbbbbbbbbb9w63=*335533953sxcccd&&&%&&&&bbbbbbbbbbbbbbb",
"bbbbbbbbbbbbbbbbbb,933>*#*w6ww6639sccccxd&&&&&&&&&bbbbbbbbbbbbbb",
"bbbbbbbbbbbbbbbbb1www6<&&&;3666663wsxccjl&&&%&&&&&&bbbbbbbbbbbbb",
"bbbbbbbbbbbbbbbb<q665>&&&&&azls3636w9lljj&&&&&&&&&&&bbbbbbbbbbbb",
"bbbbbbbbbbbbbbbb9w6bb#&%#&&alxdO666669axd&&&%&&&&&&&#bbbbbbbbbbb",
"bbbbbbbbbbbbbbb93w5b$&#&&&&jfld*166676qsa&@&&&&&&&&&&bbbbbbbbbbb",
"bbbbbbbbbbbbbbbq663$&&#<<8<as<a;=666776w;&#&&&&&&&&&&#bbbbbbbbbb",
"bbbbbbbbbbbbbb16662&-8w6>367w666w667767669-&&&&&&&&&&&bbbbbbbbbb",
"bbbbbbbbbbbbbbq66630w66>&&;9wwq666677777778d#&&&&&&&&&#bbbbbbbbb",
"bbbbbbbbbbbbbbw666663;#&&&&lcxlo3667777776sxr&&&&&&&&&#bbbbbbbbb",
"bbbbbbbbbbbbb9666663&&&&&&&jcxj .>67777775lvxr&&&&&&&&&bbbbbbbbb",
"bbbbbbbbbbbb,w66666>&&&&&&&jccd   o956776sxccx:&&&&&&&&bbbbbbbbb",
"bbbbbbbbbbba9666666&&&&#&&&fvxr   .lza669xcccvl&&&&&&&&#bbbbbbbb",
"bbbbbbbbbbbaq66666+&&&%#&&&dvx;    fxdahxcccccx&&&&&&&&&bbbbbbbb",
"bbbbbbbbbbbhq66669&&&&%#&&&dvx*    axddxxcvccvd&&&&&&&&&bbbbbbbb",
"bbbbbbbbbbfxs3663a&&&&%&&&&rxl.    :x:*lcxxvcl*&&&&&&&&&bbbbbbbb",
"bbbbbbbbbblxxlssjj&&&&&&%&&exf     $f&&exxvxl*&&&&&&&&&&&bbbbbbb",
"bbbbbbbbbaxxxxxxxd&&&&#&#&&*zr     X*&&&aljr&&&&&&&&&&&&&bbbbbbb",
"bbbbbbbbbezxxxxxxr&&&&b&&&&&l;      &&&&@#&&&&&&&&&&%&&&&bbbbbbb",
"bbbbbbbbb&jxxxxxz*&&&bb&&&&&f#     #&&&@&@&&%&&&&&&&&&&&&#bbbbbb",
"bbbbbbbb#&:jxxxlr&%&#bb&&#&&r.     &&&%&%%@&%%&&&&&&&&&&&#bbbbbb",
"bbbbbbbb#%%&err&#&&&bbb&&#&&&     @&&&&&%%&@&&%&&&&&&&&&&#bbbbbb",
"bbbbbbbbbbbbbbbbbbbbbbbbbbbbbbbbbbbbbbbbbbbbbbbbbbbbbbbbbbbbbbbb"
};
