/* XPM */
static char *burn1[] = {
/* columns rows colors chars-per-pixel */
"64 64 50 1 ",
"  c black",
". c #240000",
"X c #242400",
"o c #6D4900",
"O c #002455",
"+ c #242455",
"@ c #492455",
"# c #004955",
"$ c #244955",
"% c #494955",
"& c #6D4955",
"* c #6D6D55",
"= c #63436D",
"- c #926D00",
"; c #B66D00",
": c #926D55",
"> c #B66D55",
", c #929200",
"< c #B69200",
"1 c #B6B600",
"2 c #DB9200",
"3 c #DBB600",
"4 c #FFB600",
"5 c #929255",
"6 c #B69255",
"7 c #B6B655",
"8 c #DB9255",
"9 c #DBB655",
"0 c #7C6184",
"q c #797982",
"w c #496DAA",
"e c #6D6DAA",
"r c #6D92AA",
"t c #6DB6AA",
"y c #6DB6FF",
"u c #9D8694",
"i c #B6A19C",
"p c #9292AA",
"a c #B692AA",
"s c #92B6AA",
"d c #B6B6AA",
"f c #B8B8BD",
"g c #92B6FF",
"h c #C2B9C1",
"j c #DBB6FF",
"k c #D3C3C3",
"l c #DFD2D5",
"z c #DBDBFF",
"x c #E6DDE0",
"c c None",
/* pixels */
"cccccccccccccccccccccccccccccccccccccccccccccccccccccccccccccccc",
"cccccccccccccccccccccc>889999986cccccccccccccccccccccccccccccccc",
"cccccccccccccccccccc894444444333496ccccccccccccccccccccccccccccc",
"ccccccccccccccccc>9344434444444443336ccccccccccccccccccccccccccc",
"cccccccccccccccc8333344444444443334449cccccccccccccccccccccccccc",
"ccccccccccccccc9334444444443444363444436cccccccccccccccccccccccc",
"cccccccccccccc943344444444444444344444436ccccccccccccccccccccccc",
"ccccccccccccc83334433444444444444443<3443:cccccccccccccccccccccc",
"cccccccccccc833343334444444444444443<34443cccccccccccccccccccccc",
"ccccccccccc>4433443344444444443244434444446ccccccccccccccccccccc",
"ccccccccccc83443333334444444443634444444433ccccccccccccccccccccc",
"ccccccccccc93333333344444444433344444446sssqpccccccccccccccccccc",
"ccccccccccc333333343444444433333444444<sgggrggr0cccccccccccccccc",
"ccccccccccc333333334444444433ii63444446ggggrggyrrccccccccccccccc",
"ccccccccccc3343333344444336dlzzf9444446ggggrgggrgrcccccccccccccc",
"ccccccccccc33333333332<6dkzzzzzd9444445ggggrgggrgscccccccccccccc",
"ccccccccccc833333313396xzzzfzzl6344443uggrrrgggrgg=ccccccccccccc",
"cccccccccccc226iih64349hzzzqhf64444443pggr69ugtygtqccccccccccccc",
"ccccccccccccazzzzh644446iffi6933444446sggr933prggrrccccccccccccc",
"ccccccccccccazphh6344433<<232263443445gggq6646sggrqccccccccccccc",
"cccccccccccc:p:69333444333333334443445ygg54346ggyreccccccccccccc",
"cccccccccccc6933223344444334333344444395u9443uygrscccccccccccccc",
"cccccccccc>933339923433443333333334444433222uggtrrcccccccccccccc",
"ccccccccc6333333333933344433333333444444436sggyrrccccccccccccccc",
"cccccccc633333333<63333343333333<<444444435gyrrrcccccccccccccccc",
"ccccccc>93333<<<3333333343433332i63444433<qrwqcccccccccccccccccc",
"ccccccc633<cc933333333333333336iu94343333ccccccccccccccccccccccc",
"ccccccc82;cc:3333333333333332ih633334433-ccccccccccccccccccccccc",
"cccccccccccc833333333434332ihfu33333433<cccccccccccccccccccccccc",
"ccccccccccc6333333333333<ikf6933333343<ccccccccccccccccccccccccc",
"cccccccccc>333333333326di6693333333343;ccccccccccccccccccccccccc",
"ccccccccccc<3333<67ifpai63333333333333cccccccccccccccccccccccccc",
"cccccccccccccccafiapcc:333333333333333cccccccccccccccccccccccccc",
"cccccccccccccccccccccccc;2333333333333:ccccccccccccccccccccccccc",
"cccccccccccccccccccccccccc333333333333:@cccccccccccccccccccccccc",
"cccccccccccccccccccccccccc633333333343<$$ccccccccccccccccccccccc",
"ccccccccccccccccccccccccccc233433333343:$$@ccccccccccccccccccccc",
"ccccccccccccccccccccccccccc>33333333443dp$$@cccccccccccccccccccc",
"ccccccccccccccccccccccccccc+64333333436lf$$O$+cccccccccccccccccc",
"cccccccccccccccccccccccccc&56<<6<33336lzk$$$$$$+cccccccccccccccc",
"cccccccccccccccccc89336cc@%<33333<336lzzl$$$#$$$$ccccccccccccccc",
"ccccccccccccccccc333<cccc$$$ii633<<ilzzzf%$$#$$$$+cccccccccccccc",
"cccccccccccccccc832ccccc+$$%jjl633ilzzzlp%$$#$$$$$+ccccccccccccc",
"cccccccccccccccc93ccccc*6555666:939ilzzfh%$$$#$$$$$ccccccccccccc",
"cccccccccccccccc32cc893-<33333336<39illfh$$$$$$$$$$$cccccccccccc",
"ccccccccccccccc83<6933-$+$%:6623333336ulf$$$#$$$$$$$+ccccccccccc",
"ccccccccccccccc93633<%$$$$$pfhu63333336dp$O$$$$$$$$$$ccccccccccc",
"ccccccccccccccc3293,$$+%**%uhuu0o3333433*$+$$$$$$$$$$$cccccccccc",
"cccccccccccccc63333$$*69<33399999334444336q$$$$$$$$$$$cccccccccc",
"cccccccccccccc8333<5934<$%-<322333344444446s$$$$$$$$$$+ccccccccc",
"cccccccccccccc3333333<&$$$$allk%24444444446lp$$$$$$$$$$ccccccccc",
"ccccccccccccc6333333%$$#$$$axzh.X<34444443ixlq$$$$$$$$$ccccccccc",
"ccccccccccccc933333,$$#+$$$pxzf   o2334436lzxlq$$$$$$$$@cccccccc",
"cccccccccccc6343333%$$$+$$$plxp    af5836kzzzzl%$$$$$$$+cccccccc",
"cccccccccccu633343,$$$$O$$$uxzq    uzauilzxzzxl=$$$$$$$$cccccccc",
"cccccccccccf633332%$$$$+$$$qll=    0lfullzzzzzf$$#$$$$#$+ccccccc",
"ccccccccccald6333u%$$$$$$$$=ll@    @kq$fllzzll*$$$#$$$$#+ccccccc",
"ccccccccccfllkdifh$$$$$$O$$%lh     Xa$$=hlzlh0$$$$$$$$$$$ccccccc",
"cccccccccckllllllf$$$$+$$$$$hp      %$$$qhfu%$$$$$$$$$$$$ccccccc",
"ccccccccc&hllllllp$$$$c$$$$$dq      $$$$O+$$$$$$$$$$$##$$@cccccc",
"ccccccccc+plllzllq$$$cc$$#$$p&     O$$##$$$$#$#$$$$$$$$$$+cccccc",
"ccccccccc$%alllhq+#$0cc$$$$$q+     $$$$$#$O$#$$$$$$$$#$#$+cccccc",
"cccccccc+##$=qq%$$$%ccc$$#$$$     O$$$$$##$O$###$$$##$##$$cccccc",
"cccccccccccccccccccccccccccccccccccccccccccccccccccccccccccccccc"
};
