/* XPM */
static char *burn4[] = {
/* columns rows colors chars-per-pixel */
"64 64 51 1 ",
"  c black",
". c #242400",
"X c #6D4900",
"o c #6D6D00",
"O c #002455",
"+ c #242455",
"@ c #492455",
"# c #004955",
"$ c #244955",
"% c #494955",
"& c #6D4955",
"* c #496D55",
"= c #6D6D55",
"- c #63436D",
"; c #924900",
": c #926D00",
"> c #B66D00",
", c #926D55",
"< c #B66D55",
"1 c #929200",
"2 c #B69200",
"3 c #B6B600",
"4 c #DB9200",
"5 c #DBB600",
"6 c #FFB600",
"7 c #929255",
"8 c #B69255",
"9 c #B6B655",
"0 c #DB9255",
"q c #DBB655",
"w c #7C6184",
"e c #797982",
"r c #496DAA",
"t c #836A8B",
"y c #6D92AA",
"u c #6DB6AA",
"i c #6DB6FF",
"p c #9D8694",
"a c #B6A19C",
"s c #9292AA",
"d c #B692AA",
"f c #92B6AA",
"g c #B6B6AA",
"h c #B8B8BD",
"j c #92B6FF",
"k c #C2B9C1",
"l c #D3C3C3",
"z c #DFD2D5",
"x c #DBDBFF",
"c c #E6DDE0",
"v c None",
/* pixels */
"vvvvvvvvvvvvvvvvvvvvvvvvvvvvvvvvvvvvvvvvvvvvvvvvvvvvvvvvvvvvvvvv",
"vvvvvvvvvvvvvvvvvvvvvv<80q000q0vvvvvvvvvvvvvvvvvvvvvvvvvvvvvvvvv",
"vvvvvvvvvvvvvvvvvvv<8qq565555555qq8vvvvvvvvvvvvvvvvvvvvvvvvvvvvv",
"vvvvvvvvvvvvvvvvv<0q555556566666555qvvvvvvvvvvvvvvvvvvvvvvvvvvvv",
"vvvvvvvvvvvvvvvv0q5555656656566555555qvvvvvvvvvvvvvvvvvvvvvvvvvv",
"vvvvvvvvvvvvvvvq55566566665555558q5565qvvvvvvvvvvvvvvvvvvvvvvvvv",
"vvvvvvvvvvvvvvq555566665655565655566656qvvvvvvvvvvvvvvvvvvvvvvvv",
"vvvvvvvvvvvvv0555555666666666666666525665vvvvvvvvvvvvvvvvvvvvvvv",
"vvvvvvvvvvvv05555555656666666665666585666qvvvvvvvvvvvvvvvvvvvvvv",
"vvvvvvvvvvv<q555555555556666665566656666662vvvvvvvvvvvvvvvvvvvvv",
"vvvvvvvvvvv05555555555556666665856666666654vvvvvvvvvvvvvvvvvvvvv",
"vvvvvvvvvvvq5555555555556656655566666658fffesvvvvvvvvvvvvvvvvvvv",
"vvvvvvvvvvv5555555555555666655555666668fjjjyjjywvvvvvvvvvvvvvvvv",
"vvvvvvvvvvv5555555555555665549a86666668jjjjyjjufyvvvvvvvvvvvvvvv",
"vvvvvvvvvvv5555555565555558gzxxgq666667jjjjyjjjyjevvvvvvvvvvvvvv",
"vvvvvvvvvvv5555555555448glxxxxxgq66666pjjjjyjjjujfvvvvvvvvvvvvvv",
"vvvvvvvvvvv0555555355q8cxxxkxxl8666665sjjyyujjiujuvvvvvvvvvvvvvv",
"vvvvvvvvvvvv4289ak8566qkxxxelh85666665sjjy89sjyjjyevvvvvvvvvvvvv",
"vvvvvvvvvvvvdxxxxk866558ahhg8q55566668fjjp55qsyjjyyvvvvvvvvvvvvv",
"vvvvvvvvvvvvhxskk8q665558255522q66566pjjje8868fjjyvvvvvvvvvvvvvv",
"vvvvvvvvvvvv,d,8q555555555555q5556565ejjj86568jjuuvvvvvvvvvvvvvv",
"vvvvvvvvvvvv8q55545565555555655566656q8ppq665fjjysvvvvvvvvvvvvvv",
"vvvvvvvvvv<q5555qq2q665555565555555565555452pjjyuyvvvvvvvvvvvvvv",
"vvvvvvvvv8555555555q55655555555555565665558fjjuyyvvvvvvvvvvvvvvv",
"vvvvvvvv8555555552855555555555552066566565pjjyyyvvvvvvvvvvvvvvvv",
"vvvvvvvvq55552285555555555565550a856666652yyrevvvvvvvvvvvvvvvvvv",
"vvvvvvv8552vvq55555555555555558apq5656665vvvvvvvvvvvvvvvvvvvvvvv",
"vvvvvvv852vv,5555556555555554ak8q5656555:vvvvvvvvvvvvvvvvvvvvvvv",
"vvvvvvvvvvvv055555555555554akhpq5566665>vvvvvvvvvvvvvvvvvvvvvvvv",
"vvvvvvvvvvv05555555555552alg8q555555654vvvvvvvvvvvvvvvvvvvvvvvvv",
"vvvvvvvvvvv555555555558ga88q5555556555vvvvvvvvvvvvvvvvvvvvvvvvvv",
"vvvvvvvvvvv25555288agphp85555555556555vvvvvvvvvvvvvvvvvvvvvvvvvv",
"vvvvvvvvvvvvvvvahddhvv,556555555555555vvvvvvvvvvvvvvvvvvvvvvvvvv",
"vvvvvvvvvvvvvvvvvvvvvvvv>4555555555555vvvvvvvvvvvvvvvvvvvvvvvvvv",
"vvvvvvvvvvvvvvvvvvvvvvvvvv555555555555ovvvvvvvvvvvvvvvvvvvvvvvvv",
"vvvvvvvvvvvvvvvvvvvvvvvvvv8555555555651$$vvvvvvvvvvvvvvvvvvvvvvv",
"vvvvvvvvvvvvvvvvvvvvvvvvvvvq55555565565=$$vvvvvvvvvvvvvvvvvvvvvv",
"vvvvvvvvvvvvvvvvvvvvvvvvvvv856565555565ge$$@vvvvvvvvvvvvvvvvvvvv",
"vvvvvvvvvvvvvvvvvvvvvvvvvvv+85555555558zh$$+$+vvvvvvvvvvvvvvvvvv",
"vvvvvvvvvvvvvvvvvvvvvvvvvv%$&555555658zxk$$$$$$@vvvvvvvvvvvvvvvv",
"vvvvvvvvvvvvvvvvvvvvvv8025q9882455558zxxk$$$$$$$+vvvvvvvvvvvvvvv",
"vvvvvvvvvvvvvvvvvvvv8q52%X255555242azxxxa$$$+$$$$+vvvvvvvvvvvvvv",
"vvvvvvvvvvvvvvvvvv,055:&+$$%,:555qpzxxxzs$$$$$$$$$vvvvvvvvvvvvvv",
"vvvvvvvvvvvvvvvvv8q52;88qqqqqqq225q8kxxhk$$$$$$$$$$vvvvvvvvvvvvv",
"vvvvvvvvvvvvvvvv8q588q5oX2455565q25q8hlhh$$$$$$$$$$$vvvvvvvvvvvv",
"vvvvvvvvvvvvvvvvq20q54=$+$$eah845555qqpzh$$$#$$$$$$$+vvvvvvvvvvv",
"vvvvvvvvvvvvvvv84855:$#$$#$ddks&255556qpp$#$$$$$$$$$$vvvvvvvvvvv",
"vvvvvvvvvvvvvvvq055X$$+,8888a887,5555665=$+$$$$$$$$$$+vvvvvvvvvv",
"vvvvvvvvvvvvvv85555%*7q5:46556655555566658=+$$$$$$$$$$vvvvvvvvvv",
"vvvvvvvvvvvvvv055528q55:$$=8qq8455556666667p+$$$$$$$$$@vvvvvvvvv",
"vvvvvvvvvvvvv<5555553:%$$$$hxzl.:5566666668ze$$$$$$$$$+vvvvvvvvv",
"vvvvvvvvvvvvv8555552$$$$$$$hxxh  X46666665gcze$$$$$$$$$vvvvvvvvv",
"vvvvvvvvvvvv&0555551$$$+$$$dxxs   .8056658zzcz*$$$$$$$$vvvvvvvvv",
"vvvvvvvvvvvv8555555=$$$O$$$sczs    hlp058lxxxxk$$$$$$$$+vvvvvvvv",
"vvvvvvvvvvvp8555552$$$$O$$$szxe    dzdpazxxxxcz%$$$$$$#$vvvvvvvv",
"vvvvvvvvvvvh855555%$$$$+$$$ezz%    tzdszzxxxccg$$$$$$$$$vvvvvvvv",
"vvvvvvvvvvdza25557$$$$$$$$$ezl+    %zw$hxxccxk*$$$#$$$$$+vvvvvvv",
"vvvvvvvvvvhzzkgahh$$$$$$+$$-zh     +d$$-lzzzk-$$$$#$$$$$$vvvvvvv",
"vvvvvvvvvvlzzzzzzf$$$$+$$$$$ls      %$$$pkhe$$$$$$$$$$$$$vvvvvvv",
"vvvvvvvvv&kzzzzzze$$$%v$$$$$he      $$$$++$$$$$$$$$$$$$$$vvvvvvv",
"vvvvvvvvv+szzzzzz*$$$-v$$$$$d%     +$$$#$#$$#$$$$$$$$$$$$+vvvvvv",
"vvvvvvvvv$%hlzzke$$$+vv$$+$$e.     $$$$$$$O$$$$$$$$$$$$$$+vvvvvv",
"vvvvvvvv+##$-ee%+$$$vvv$$$$$$     O$$$#$$$$O$$$$$$$$$$$$$$vvvvvv",
"vvvvvvvvvvvvvvvvvvvvvvvvvvvvvvvvvvvvvvvvvvvvvvvvvvvvvvvvvvvvvvvv"
};
