/* XPM */
static char *burn2[] = {
/* columns rows colors chars-per-pixel */
"64 64 55 1 ",
"  c black",
". c #240000",
"X c #242400",
"o c #492400",
"O c #6D4900",
"+ c #6D6D00",
"@ c #002455",
"# c #242455",
"$ c #492455",
"% c #004955",
"& c #244955",
"* c #494955",
"= c #6D4955",
"- c #496D55",
"; c #6D6D55",
": c #63436D",
"> c #926D00",
", c #B66D00",
"< c #924955",
"1 c #926D55",
"2 c #B66D55",
"3 c #929200",
"4 c #B69200",
"5 c #B6B600",
"6 c #DB9200",
"7 c #DBB600",
"8 c #FFB600",
"9 c #929255",
"0 c #B69255",
"q c #B6B655",
"w c #DB9255",
"e c #DBB655",
"r c #7C6184",
"t c #797982",
"y c #496DAA",
"u c #6D6DAA",
"i c #836A8B",
"p c #6D92AA",
"a c #6DB6AA",
"s c #6DB6FF",
"d c #9D8694",
"f c #B6A19C",
"g c #9292AA",
"h c #B692AA",
"j c #92B6AA",
"k c #B6B6AA",
"l c #B8B8BD",
"z c #92B6FF",
"x c #C2B9C1",
"c c #DBB6FF",
"v c #D3C3C3",
"b c #DFD2D5",
"n c #DBDBFF",
"m c #E6DDE0",
"M c None",
/* pixels */
"MMMMMMMMMMMMMMMMMMMMMMMMMMMMMMMMMMMMMMMMMMMMMMMMMMMMMMMMMMMMMMMM",
"MMMMMMMMMMMMMMMMMMMMMM2wwweeeew0MMMMMMMMMMMMMMMMMMMMMMMMMMMMMMMM",
"MMMMMMMMMMMMMMMMMMMMwe8888788778ee0MMMMMMMMMMMMMMMMMMMMMMMMMMMMM",
"MMMMMMMMMMMMMMMMM2e7778888888888777e0MMMMMMMMMMMMMMMMMMMMMMMMMMM",
"MMMMMMMMMMMMMMMMw77777888887888777787eMMMMMMMMMMMMMMMMMMMMMMMMMM",
"MMMMMMMMMMMMMM2e777888888887788707888870MMMMMMMMMMMMMMMMMMMMMMMM",
"MMMMMMMMMMMMM2e77778887788887887778888870MMMMMMMMMMMMMMMMMMMMMMM",
"MMMMMMMMMMMMMe7777777888888888888887478871MMMMMMMMMMMMMMMMMMMMMM",
"MMMMMMMMMMMMe77777777888888888888887478887MMMMMMMMMMMMMMMMMMMMMM",
"MMMMMMMMMMM07777777777788888887788878788884MMMMMMMMMMMMMMMMMMMMM",
"MMMMMMMMMMMw8777777778888888887088888888876MMMMMMMMMMMMMMMMMMMMM",
"MMMMMMMMMMM77777777778888888878788888870jjjugMMMMMMMMMMMMMMMMMMM",
"MMMMMMMMMMw7777777777888888878778888880jzzzpzzpMMMMMMMMMMMMMMMMM",
"MMMMMMMMMM077877777778888877efk08888880zzzzpzzsppMMMMMMMMMMMMMMM",
"MMMMMMMMMM07778777877787770lnnnke888889zzzzpzzzpzpMMMMMMMMMMMMMM",
"MMMMMMMMMM27778777777640kvnnnnnke888889zzzzpzzzazjMMMMMMMMMMMMMM",
"MMMMMMMMMMMw777777577e0nnnnlnnxw888887gzzpppzzzazz:MMMMMMMMMMMMM",
"MMMMMMMMMMM2660qkx0878evnnbtvl08888887gzzp0edzaszatMMMMMMMMMMMMM",
"MMMMMMMMMMMMknnnnle78870fllf0e77888880jzzg777gpzzppMMMMMMMMMMMMM",
"MMMMMMMMMMMMlngxl077878704776407877889zzzt0080jzzppMMMMMMMMMMMMM",
"MMMMMMMMMMMM1h10e77787777777e77888887dszz08780zzspMMMMMMMMMMMMMM",
"MMMMMMMMMMMM0e776677888877787777878887edde887dszpjMMMMMMMMMMMMMM",
"MMMMMMMMMM0e7777ee47887877777877777888887660gzzappMMMMMMMMMMMMMM",
"MMMMMMMMMw777777774e87787777777777888887870jzzappMMMMMMMMMMMMMMM",
"MMMMMMMM0777777774077777787777774478788787dzspppMMMMMMMMMMMMMMMM",
"MMMMMMM077775440e777777788878770f088888874ppyrMMMMMMMMMMMMMMMMMM",
"MMMMMMMw774M=e77777777777777770fde8787777MMMMMMMMMMMMMMMMMMMMMMM",
"MMMMMMMe6MMM0777777777777777wkx077888777>MMMMMMMMMMMMMMMMMMMMMMM",
"MMMMMMMMMMM<e7777777787777wfxl077787887,MMMMMMMMMMMMMMMMMMMMMMMM",
"MMMMMMMMMMMw7777777777770fbf0e777777874MMMMMMMMMMMMMMMMMMMMMMMMM",
"MMMMMMMMMM0777777777760kf00e7777777787>MMMMMMMMMMMMMMMMMMMMMMMMM",
"MMMMMMMMMMM4777740ffkgkd07777877777777MMMMMMMMMMMMMMMMMMMMMMMMMM",
"MMMMMMMMMMMMMMMhlghgMM1777777777777777MMMMMMMMMMMMMMMMMMMMMMMMMM",
"MMMMMMMMMMMMMMMMMMMMMMMM46777777777777MMMMMMMMMMMMMMMMMMMMMMMMMM",
"MMMMMMMMMMMMMMMMMMMMMMMMM1777777777777;#MMMMMMMMMMMMMMMMMMMMMMMM",
"MMMMMMMMMMMMMMMMMMMMMMMMMM0777777777874&&MMMMMMMMMMMMMMMMMMMMMMM",
"MMMMMMMMMMMMMMMMMMMMMMMMMMM7778877877871&&MMMMMMMMMMMMMMMMMMMMMM",
"MMMMMMMMMMMMMMMMMMMMMMMMMMM277787777787kt&&#MMMMMMMMMMMMMMMMMMMM",
"MMMMMMMMMMMMMMMMMMMMMMMMMMM#07777777770bl&&#&&MMMMMMMMMMMMMMMMMM",
"MMMMMMMMMMMMMMMMMMMMMMMMMM$&=777777770bnx&&&&&&$MMMMMMMMMMMMMMMM",
"MMMMMMMMMMMMMMMMMMMMMM0w27eq004677770bnnb&&&%&&&&MMMMMMMMMMMMMMM",
"MMMMMMMMMMMMMMMMMMMM0e74M=347777464fbnnnk*&&%&&&&#MMMMMMMMMMMMMM",
"MMMMMMMMMMMMMMMMMM2w77,$#&&*d0777efcnnnbg*&&&&&&&&$MMMMMMMMMMMMM",
"MMMMMMMMMMMMMMMMMw774M11eqqqee4477efbnnlx&&&&&&&&&&MMMMMMMMMMMMM",
"MMMMMMMMMMMMMMMMw7744e7O+4777777647e0xblx&&&&&&&&&&&MMMMMMMMMMMM",
"MMMMMMMMMMMMMMM274e764;&#&1w6774477770dbl&&&%&&&&&&&#MMMMMMMMMMM",
"MMMMMMMMMMMMMMMw7064ee+&&&*47777077787efd&@&&&&&&&&&&MMMMMMMMMMM",
"MMMMMMMMMMMMMM27w7e77+#&&&&hxf07777887771&#&&&&&&&&&&&MMMMMMMMMM",
"MMMMMMMMMMMMMM0774e4&&#&&&&lbbx07788788870;&&&&&&&&&&&MMMMMMMMMM",
"MMMMMMMMMMMMMMe7767;&&#&&&&lnnb;77788888880g&&&&&&&&&&#MMMMMMMMM",
"MMMMMMMMMMMMM077777;&&&&&&&lnnvX>7888888880bg&&&&&&&&&&MMMMMMMMM",
"MMMMMMMMMMMMMw77777;&&&&&&&lnnl .>78888887kmnt&&&&&&&%&MMMMMMMMM",
"MMMMMMMMMMMM1777777;&&&#&&&hnng   o0678870bnnbt&&&&&&&&#MMMMMMMM",
"MMMMMMMMMMM10777777&%&&#&&&gmmd    lvdw70vnnnnv*&&&&&&&#MMMMMMMM",
"MMMMMMMMMMM1e77777>&&&%#&&&gmnt    hbhdkbnmnnmb-%&&&&&%&MMMMMMMM",
"MMMMMMMMMMMk077774&&&&%#&&&dbb*    iblgbbnmnnnl&&%&&&&%&MMMMMMMM",
"MMMMMMMMMMhbf6774d&&&&%&&&&tbv#    *bt&lnbbmnv-&&&%&&&&&#MMMMMMM",
"MMMMMMMMMMxbnxkkxl&%&&&&%&&:bl     #h&&:vbbbxr&&&&&&&&&&&MMMMMMM",
"MMMMMMMMMdbbbbbbbg&&&&#&&&&&vg      *&&&txld*&&&&&&&&&&&&MMMMMMM",
"MMMMMMMMMrxbbbbbbt&&&*M&&&&&xt      &&&&@#&&&&&&&&&&&&&&&#MMMMMM",
"MMMMMMMMM&lbbbnbv*&&&MM&&&&&h*     @&&&%&%&&%&&&&&&&&&&&&#MMMMMM",
"MMMMMMMM#&:lbbbxt&&&*MM&&#&&tX     &&&%&%&@&%&&&&&&&&&&&&&MMMMMM",
"MMMMMMMM#%%&;tr&#&&#MMM&&@&&&     @&&&#&%%&@&&&&&&&&&&&%&&MMMMMM",
"MMMMMMMMMMMMMMMMMMMMMMMMMMMMMMMMMMMMMMMMMMMMMMMMMMMMMMMMMMMMMMMM"
};
