/* XPM */
static char *screen3[] = {
/* columns rows colors chars-per-pixel */
"64 64 169 2 ",
"   c #0F1826",
".  c #0F182B",
"X  c #101927",
"o  c #12182A",
"O  c #18182F",
"+  c #0E1834",
"@  c #0E193A",
"#  c #141E31",
"$  c #1A1B34",
"%  c #141839",
"&  c #1C1A3B",
"*  c #241B3C",
"=  c #2B1E3E",
"-  c #321E3F",
";  c #0F2539",
":  c #132032",
">  c #16253A",
",  c #1B253C",
"<  c #22253E",
"1  c #0E1A45",
"2  c #0C194D",
"3  c #0C1A51",
"4  c #0B1B59",
"5  c #2A1D42",
"6  c #2C1949",
"7  c #1E2543",
"8  c #1C244A",
"9  c #14244D",
"0  c #1D2455",
"q  c #182457",
"w  c #232542",
"e  c #2B2542",
"r  c #262B41",
"t  c #21244F",
"y  c #332542",
"u  c #3C2444",
"i  c #33244B",
"p  c #3A244B",
"a  c #212454",
"s  c #2A2452",
"d  c #3C2355",
"f  c #362358",
"g  c #382359",
"h  c #091B65",
"j  c #091C6D",
"k  c #151C6C",
"l  c #041D7E",
"z  c #231B6D",
"x  c #3E1A63",
"c  c #3B1C76",
"v  c #3E1C79",
"b  c #321B70",
"n  c #19226A",
"m  c #2C2361",
"M  c #22276E",
"N  c #242A6F",
"B  c #352264",
"V  c #3A2269",
"C  c #372267",
"Z  c #282E70",
"A  c #352173",
"S  c #3C2172",
"D  c #4A1E45",
"F  c #43195E",
"G  c #442542",
"H  c #43244A",
"J  c #4D244B",
"K  c #51244A",
"L  c #582448",
"P  c #422355",
"I  c #422359",
"U  c #4B235C",
"Y  c #4C2355",
"T  c #562358",
"R  c #59225D",
"E  c #502453",
"W  c #6C225E",
"Q  c #67235D",
"!  c #742353",
"~  c #782354",
"^  c #421A63",
"/  c #511B6F",
"(  c #441C7A",
")  c #4C1C7A",
"_  c #4B1B77",
"`  c #551B75",
"'  c #531B7A",
"]  c #581B79",
"[  c #6E1F78",
"{  c #761E7A",
"}  c #741F74",
"|  c #472361",
" . c #4F2262",
".. c #47216E",
"X. c #5C2264",
"o. c #5E216E",
"O. c #572075",
"+. c #582171",
"@. c #6C2263",
"#. c #652266",
"$. c #7F2267",
"%. c #72216D",
"&. c #7A2168",
"*. c #6B2072",
"=. c #752075",
"-. c #7F2073",
";. c #8D1F76",
":. c #8B1E7B",
">. c #901E7C",
",. c #81216C",
"<. c #88206C",
"1. c #822172",
"2. c #8A2070",
"3. c #932074",
"4. c #041D83",
"5. c #011D8D",
"6. c #0B1F84",
"7. c #1B1B8C",
"8. c #241D8D",
"9. c #2C1D8D",
"0. c #331D8D",
"q. c #3C1D8D",
"w. c #12238C",
"e. c #1F218D",
"r. c #1D2A91",
"t. c #2C2F8D",
"y. c #2C348F",
"u. c #212390",
"i. c #242F93",
"p. c #2C3592",
"a. c #441D8C",
"s. c #4C1D8C",
"d. c #5C1B86",
"f. c #531D8D",
"g. c #5B1D8E",
"h. c #541C85",
"j. c #621C8C",
"k. c #3F4194",
"l. c #474C9A",
"z. c #4C4D9A",
"x. c #424592",
"c. c #4E5398",
"v. c #5A5D9F",
"b. c #60619C",
"n. c #6569A3",
"m. c #6C6FA7",
"M. c #6366A1",
"N. c #7475A6",
"B. c #7274A9",
"V. c #7678A9",
"C. c #7B7DAD",
"Z. c #871E80",
"A. c #A71D89",
"S. c #AF1D8B",
"D. c #B41C8B",
"F. c #B91C8B",
"G. c #BD1B91",
"H. c #CD1C8D",
"J. c #D21C8D",
"K. c #C81B91",
"L. c #D51B91",
"P. c #DC1B91",
"I. c #E71A91",
"U. c #E91A91",
"Y. c #8E8EB7",
"T. c #9D9EBF",
"R. c #A7A8C4",
"E. c #B9B9CF",
"W. c None",
/* pixels */
"W.W.W.W.W.W.W.W.W.W.W.W.W.W.W.W.W.W.W.W.W.W.W.W.W.W.W.W.W.W.W.W.W.W.W.W.W.W.W.W.W.W.W.W.W.W.W.W.W.W.W.W.W.W.W.W.W.W.W.W.W.W.W.W.",
"W.W.W.W.W.W.W.W.W.W.W.W.W.W.W.W.W.W.W.W.W.W.W.W.W.W.W.W.7 > > > > w < > p X.=.2.3.3.3.1.2.2.<.<.<.<.<.<.,.&.@.@.#.@.X.U i , > > ",
"u u u u u u u u p e , , > > > , > > > > > > > , > , , > > > , > > > > 7 0 m C C V V f p y y y y y y y y y < < e e e w < > > > < ",
"F.F.F.F.D.D.D.D.S.A.W.W.W.W.W.W.W.W.W.W.W.W.W.W.W.W.W.W.W.W.W.W.W.W.W.W.W.W.W.W.W.W.W.W.W.W.W.W.W.W.W.W.W.W.W.W.W.W.W.W., w d I ",
"L.I.I.U.U.U.I.I.I.P.H.G.W.W.W.W.W.W.W.W.W.W.W.W.W.W.W.W.W.W.W.W.W.W.W.W.W.W.W.W.W.W.W.W.W.W.W.W.W.W.W.W.W.W.W.W.W.W.W.W.> e d | ",
"W.W.W.W.W.W.W.W.W.W.W.W.W.W.W.W.W.W.W.W.W.W.W.W.W.W.W.W.W.W.W.W.W.W.W.W.W.W.W.W.W.W.W.W.W.W.W.W.W.W.W.W.W.W.W.W.W.W.W.W.> e I  .",
"W.W.W.W.W.W.W.W.W.W.W.W.W.W.W.W.W.W.W.W.W.W.W.W.W.W.W.W.W.W.W.W.W.W.W.W.W.W.W.W.W.W.W.W.W.W.W.W.W.W.W.W.W.W.W.W.W.W.W.W.> y T #.",
"W.W.W.W.W.W.W.W.W.W.W.W.W.W.W.W.W.W.W.W.W.W.W.W.W.W.W.W.W.W.W.W.W.W.W.W.W.W.W.W.W.W.W.W.W.W.W.W.W.W.W.W.W.W.W.W.W.W.W.W.> H @.,.",
"W.W.W.W.W.W.W.W.W.W.W.W.W.W.W.W.W.W.W.W.W.W.W.W.W.W.W.W.W.W.W.W.W.W.W.W.W.W.W.W.W.W.W.W.W.W.W.W.W.W.W.W.W.W.W.W.W.W.W.W.> H @.,.",
"W.W.W.W.W.W.W.W.W.W.W.W.W.W.W.W.W.W.W.W.W.W.W.W.W.W.W.W.W.W.W.W.W.W.W.W.W.W.W.W.W.W.W.W.W.W.W.W.W.W.W.W.W.W.W.W.W.W.W.W.> p @.,.",
"W.W.W.W.W.W.W.W.W.W.W.W.W.W.W.W.W.W.W.W.W.W.W.W.W.W.W.W.W.W.W.W.W.W.W.W.W.W.W.W.W.W.W.W.W.W.W.W.W.W.W.W.W.W.W.W.W.W.W.W.> H @.,.",
"W.W.W.W.W.W.W.W.W.W.W.W.W.W.W.W.W.W.W.W.W.W.W.W.W.W.W.W.W.W.W.W.W.W.W.W.W.W.W.W.W.W.W.W.W.W.W.W.W.W.W.W.W.W.W.W.W.W.W.W.> H @.,.",
"W.W.W.W.W.W.W.W.W.W.W.W.W.W.W.W.W.W.W.W.W.W.W.W.W.W.W.W.W.W.W.W.W.W.W.W.W.W.W.W.W.W.W.W.W.W.W.W.W.W.W.W.W.W.W.W.W.W.W.W.9 U =.Z.",
"W.W.W.W.W.W.W.W.W.W.W.W.W.W.W.W.W.W.W.W.W.W.W.W.W.W.W.W.W.W.W.W.W.W.W.W.W.W.W.W.W.W.W.W.W.W.W.W.W.W.W.W.W.W.W.W.W.W.W.W.q | =.Z.",
"W.W.W.W.W.W.W.W.W.W.W.W.W.W.W.W.W.W.W.W.W.W.W.W.W.W.W.W.W.W.W.W.W.W.W.W.W.W.W.W.W.W.W.W.W.W.W.W.W.W.W.W.W.W.W.W.W.W.W.W.n V o.*.",
"W.W.W.W.W.W.W.W.W.W.W.W.W.W.W.W.W.W.W.W.W.W.W.W.W.W.W.W.W.W.W.W.W.W.W.W.W.W.W.W.W.W.W.W.W.W.W.W.W.W.W.W.W.W.W.W.W.W.W.W.q 0 s W.",
"W.W.W.W.W.W.W.W.W.W.W.W.W.W.W.W.W.W.W.W.W.W.W.W.W.W.W.W.W.W.W.W.W.W.W.W.W.W.W.W.W.W.W.W.W.W.W.W.W.W.W.W.W.W.W.W.W.W.W.W.0 0 W.W.",
"W.W.W.W.W.W.W.W.W.W.W.W.W.W.W.W.W.W.W.W.W.W.W.W.W.W.W.W.W.W.W.W.W.W.W.W.W.W.W.W.W.W.W.W.W.W.W.W.W.W.W.W.W.W.W.W.W.W.W.W.a 0 W.W.",
"W.W.W.W.W.W.W.W.W.W.W.W.W.W.W.W.W.W.W.W.W.W.W.W.W.W.W.W.W.W.W.W.W.W.W.W.W.W.W.W.W.W.W.W.W.W.W.W.W.W.W.W.W.W.W.W.W.W.W.W.t a W.W.",
"W.W.W.W.W.W.W.W.W.W.W.W.W.W.W.W.W.W.W.W.W.W.W.W.W.W.W.W.W.W.W.W.W.W.W.W.W.W.W.W.W.W.W.W.W.W.W.W.W.W.W.W.W.W.W.W.W.W.W.W.> 7 W.W.",
"W.W.W.W.W.W.W.W.W.W.W.W.W.W.W.W.W.W.W.W.W.W.W.W.W.W.W.W.W.W.W.W.W.W.W.W.W.W.W.W.W.W.W.W.W.W.W.W.W.W.W.W.W.W.W.W.W.W.W.W.> w W.W.",
"W.W.W.W.W.W.W.W.W.W.W.W.W.W.W.W.W.W.W.W.W.W.W.W.W.W.W.W.W.W.W.W.W.W.W.W.W.W.W.W.W.W.W.W.W.W.W.W.W.W.W.W.W.W.W.W.W.W.W.W.> w W.W.",
"W.W.W.W.W.W.W.W.W.W.W.W.W.W.W.W.W.W.W.W.W.W.W.W.W.W.W.W.W.W.W.W.W.W.W.W.W.W.W.W.W.W.W.W.W.W.W.W.W.W.W.W.W.W.W.W.W.W.W.W.> w W.W.",
"W.W.W.W.W.W.W.W.W.W.W.W.W.W.W.W.W.W.W.W.W.W.W.W.W.W.W.W.W.W.W.W.W.W.W.W.W.W.W.W.W.W.W.W.W.W.W.W.W.W.W.W.W.W.W.W.W.W.W.W.> r W.W.",
"W.W.W.W.W.W.W.W.W.W.W.W.W.W.W.W.W.W.W.W.W.W.W.W.W.W.W.W.W.W.W.W.W.W.W.W.W.W.W.W.W.W.W.W.W.W.W.W.W.W.W.W.W.W.W.W.W.W.W.W.> e W.W.",
"W.W.W.W.W.W.W.W.W.W.W.W.W.W.W.W.W.W.W.W.W.W.W.W.W.W.W.W.W.W.W.W.W.W.W.W.W.W.W.W.W.W.W.W.W.W.W.W.W.W.W.W.W.W.W.W.W.W.W.W.> e W.W.",
"W.W.W.W.W.W.W.W.W.W.W.W.W.W.W.W.W.W.W.W.W.W.W.W.W.W.W.W.W.W.W.W.W.W.W.W.W.W.W.W.W.W.W.W.W.W.W.W.W.W.W.W.W.W.W.W.W.W.W.W.> e W.W.",
"W.W.W.W.W.W.W.W.W.W.W.W.W.W.W.W.W.W.W.W.W.W.W.W.W.W.W.W.W.W.W.W.W.W.W.W.W.W.W.W.W.W.W.W.W.W.W.W.W.W.W.W.W.W.W.W.W.W.W.W.> e W.W.",
"W.W.W.W.W.W.W.W.W.W.W.W.W.W.W.W.W.W.W.W.W.W.W.W.W.W.W.W.W.W.W.W.W.W.W.W.W.W.W.W.W.W.W.W.W.W.W.W.W.W.W.W.W.W.W.W.W.W.W.W.> y W.W.",
"W.W.W.W.W.W.W.W.W.W.W.W.W.W.W.W.W.W.W.W.W.W.W.W.W.W.W.W.W.W.W.W.W.W.W.W.W.W.W.W.W.W.W.W.W.W.W.W.W.W.W.W.W.W.W.W.W.W.W.W.> p W.W.",
"W.W.W.W.W.W.W.W.W.W.W.W.W.W.W.W.W.W.W.W.W.W.W.W.W.W.W.W.W.W.W.W.W.W.W.W.W.W.W.W.W.W.W.W.W.W.W.W.W.W.W.W.W.W.W.W.W.W.W.W.> y W.W.",
"W.W.W.W.W.W.W.W.W.W.W.W.W.W.W.W.W.W.W.W.W.W.W.W.W.W.W.W.W.W.W.W.W.W.W.W.W.W.W.W.W.W.W.W.W.W.W.W.W.W.W.W.W.W.W.W.W.W.W.W.> u W.W.",
"W.W.W.W.W.W.W.W.W.W.W.W.W.W.W.W.W.W.W.W.W.W.W.W.W.W.W.W.W.W.W.W.W.W.W.W.W.W.W.W.W.W.W.W.W.W.W.W.W.W.W.W.W.W.W.W.W.W.W.W.> u W.W.",
"W.W.W.W.W.W.W.W.W.W.W.W.W.W.W.W.W.W.W.W.W.W.W.W.W.W.W.W.W.W.W.W.W.W.W.W.W.W.W.W.W.W.W.W.W.W.W.W.W.W.W.W.W.W.W.W.W.W.W.W.> u W.W.",
"W.W.W.W.W.W.W.W.W.W.W.W.W.W.W.W.W.W.W.W.W.W.W.W.W.W.W.W.W.W.W.W.W.W.W.W.W.W.W.W.W.W.W.W.W.W.W.W.W.W.W.W.W.W.W.W.W.W.W.W.; G W.W.",
"W.W.W.W.W.W.W.W.W.W.W.W.W.W.W.W.W.W.W.W.W.W.W.W.W.W.W.W.W.W.W.W.W.W.W.W.W.W.W.W.W.W.W.W.W.W.W.W.W.W.W.W.W.W.W.W.W.W.W.W.> G W.W.",
"W.W.W.W.W.W.W.W.W.W.W.W.W.W.W.W.W.W.W.W.W.W.W.W.W.W.W.W.W.W.W.W.W.W.W.W.W.W.W.W.W.W.W.W.W.W.W.W.W.W.W.W.W.W.W.W.W.W.W.W.; G W.W.",
"W.W.W.W.W.W.W.W.W.W.W.W.W.W.W.W.W.W.W.W.W.W.W.W.W.W.W.W.W.W.W.W.W.W.W.W.W.W.W.W.W.W.W.W.W.W.W.W.W.W.W.W.W.W.W.W.W.W.W.W.> G W.W.",
"W.W.W.W.W.W.W.W.W.W.W.W.W.W.W.W.W.W.W.W.W.W.W.W.W.W.W.W.W.W.W.W.W.W.W.W.W.W.W.W.W.W.W.W.W.W.W.W.W.W.W.W.W.W.W.W.W.W.W.W.; G W.W.",
"W.W.W.W.W.W.W.W.W.W.W.W.W.W.W.W.W.W.W.W.W.W.W.W.W.W.W.W.W.W.W.W.W.W.W.W.W.W.W.W.W.W.W.W.W.W.W.W.W.W.W.W.W.W.W.W.W.W.W.W.< L W.W.",
"W.W.W.W.W.W.W.W.W.W.W.W.W.W.W.W.W.W.W.W.W.W.W.W.W.W.W.W.W.W.W.W.W.W.W.W.W.W.W.W.W.W.W.W.W.W.W.W.W.W.W.W.W.W.W.W.W.W.W.W.~ ~ W.W.",
"W.W.W.W.W.W.W.W.W.W.W.W.W.W.W.W.W.W.W.W.W.W.W.W.W.W.W.W.W.W.W.W.W.W.W.W.W.W.W.W.W.W.W.W.W.W.W.W.W.W.W.W.W.W.W.W.W.W.W.W.~ ~ W.W.",
"W.W.W.W.W.W.W.W.W.W.W.W.W.W.W.W.W.W.W.W.W.W.W.W.W.W.W.W.W.W.W.W.W.W.W.W.W.W.W.W.W.W.W.W.W.W.W.W.W.W.W.W.W.W.W.W.W.W.W.W.! W W.W.",
"W.W.W.W.W.W.W.W.W.W.W.W.W.W.W.W.W.W.W.W.W.W.W.W.W.W.W.W.W.W.W.W.W.W.W.W.W.W.W.W.W.W.W.W.W.W.W.W.W.W.W.W.W.W.W.W.W.W.W.W.S ..X.Q ",
"W.W.W.W.W.W.W.W.W.W.W.W.W.W.W.W.W.W.W.W.W.W.W.W.W.W.W.W.W.W.W.W.W.W.W.W.W.W.W.W.W.W.W.W.W.W.W.W.W.W.W.W.W.W.W.W.W.W.W.W.A O.-.2.",
"W.W.W.W.W.W.W.W.W.W.W.W.W.W.W.W.W.W.W.W.W.W.W.W.W.W.W.W.W.W.W.W.W.W.W.W.W.W.W.W.W.W.W.W.W.W.W.W.W.W.W.W.W.W.W.W.W.W.W.W.A +.1.3.",
"W.W.W.W.W.W.W.W.W.W.W.W.W.W.W.W.W.W.W.W.W.W.W.W.W.W.W.W.W.W.W.W.W.W.W.W.W.W.W.W.W.W.W.W.W.W.W.W.W.W.W.W.W.W.W.W.W.W.W.W.7 E ,.3.",
"W.W.W.W.W.W.W.W.W.W.W.W.W.W.W.W.W.W.W.W.W.W.W.W.W.W.W.W.W.W.W.W.W.W.W.W.W.W.W.W.W.W.W.W.W.W.W.W.W.W.W.W.W.W.W.W.W.W.W.W.; J ,.3.",
"W.W.W.W.W.W.W.W.W.W.W.W.W.W.W.W.W.W.W.W.W.W.W.W.W.W.W.W.W.W.W.W.W.W.W.W.W.W.W.W.W.W.W.W.W.W.W.W.W.W.W.W.W.W.W.W.W.W.W.W.; J ,.3.",
"W.W.W.W.W.W.W.W.W.W.W.W.W.W.W.W.W.W.W.W.W.W.W.W.W.W.W.W.W.W.W.W.W.W.W.W.W.W.W.W.W.W.W.W.W.W.W.W.W.W.W.W.W.W.W.W.W.W.W.W.; J $.3.",
"W.W.W.W.W.W.W.W.W.W.W.W.W.W.W.W.W.W.W.W.W.W.W.W.W.W.W.W.W.W.W.W.W.W.W.W.W.W.W.W.W.W.W.W.W.W.W.W.W.W.W.W.W.W.W.W.W.W.W.W.; J $.3.",
"W.W.W.W.W.W.W.W.W.W.W.W.W.W.W.W.W.W.W.W.W.W.W.W.W.W.W.W.W.W.W.W.W.W.W.W.W.W.W.W.W.W.W.W.W.W.W.W.W.W.W.W.W.W.W.W.W.W.W.W.; H @.,.",
"W.W.W.W.W.W.W.W.W.W.W.W.W.W.W.W.W.W.W.W.W.W.W.W.W.W.W.W.W.W.W.W.W.W.W.W.W.W.W.W.W.W.W.W.W.W.W.W.W.W.W.W.W.W.W.W.W.W.W.W.> i R #.",
"L.L.P.P.L.I.I.U.I.P.L.K.W.W.W.W.W.W.W.W.W.W.W.W.W.W.W.W.W.W.W.W.W.W.W.W.W.W.W.W.W.W.W.W.W.W.W.W.W.W.W.W.W.W.W.W.W.W.W.W.> y U X.",
"J.J.J.J.H.H.J.H.H.F.W.W.W.W.W.W.W.W.W.W.W.W.W.W.W.W.W.W.W.W.W.W.W.W.W.W.W.W.W.W.W.W.W.W.W.W.W.W.W.W.W.W.W.W.W.W.W.W.W.W.> r P U ",
"K K K K K K J J J p e > , > > , , > > > , > > > > , > > , > > > > > 7 8 a m C B B g i y y y y y y y y y e < < w r w w , > , , w ",
"W.W.W.W.W.W.W.W.W.W.W.W.W.W.W.W.W.W.W.W.W.W.W.W.W.W.> > > > > > , < , < d #.*.j.{ } %.@.Q W @.Q W @.W Q R Y P d I I d i w > > > ",
"* * * * * & 5 & * * * & * & & * & * 5 & & & & 5 & & & & & & , & - D D = $ * 5 y 5 5 = * * = * e < * = < * & , & & $ : : O : : : ",
"/ ] ] ] ' ' ' ' ' ' ) ' ) ) ) ) ) ( ( ( ) ( ( ( ( ( ( v v v v v c c b z k k n M Z Z Z Z N n k j j j j j j j h 4 1 .     X X W.W.",
"F ` j.j.j.j.j.g.g.f.g.f.f.f.s.s.s.s.a.a.a.q.q.q.q.q.0.0.0.0.9.9.9.8.8.8.7.8.k.b.N.C.C.N.M.l.p.w.5.5.5.5.4.l h 1 +       W.W.W.W.",
"O 6 F ` d.j.j.g.g.g.f.f.f.f.s.s.s.a.a.a.a.q.q.q.0.0.0.0.9.9.9.9.9.8.8.7.7.u.z.B.T.E.R.C.m.B.v.i.5.5.5.4.j 2 @ .     W.W.W.W.W.W.",
"    O 6 ^ _ d.g.g.f.g.f.f.s.s.s.s.s.a.a.a.a.q.q.q.0.0.0.0.9.9.9.8.8.8.8.7.u.z.B.Y.T.T.Y.C.n.l.u.5.4.j 3 @ .     W.W.W.W.W.W.W.W.",
"      X O 6 x _ f.f.h.h.s.s.s.s.s.a.a.a.q.q.q.q.q.0.0.0.9.9.9.9.8.8.8.7.7.7.t.x.b.V.N.n.c.p.6.6.j 3 % +     W.W.W.W.W.W.W.W.W.W.",
"            O O & * & & & & & & & % $ % % % % % % % % % % % % % % % % @ % % % & , r r , 7 % @ @ + .     W.W.W.W.W.W.W.W.W.W.W.W."
};
