/* XPM */
static char *screen2[] = {
/* columns rows colors chars-per-pixel */
"64 64 239 2 ",
"   c #0F1826",
".  c #0E182A",
"X  c #111826",
"o  c #181827",
"O  c #111828",
"+  c #10182A",
"@  c #11182A",
"#  c #12182A",
"$  c #13182A",
"%  c #14182A",
"&  c #12192E",
"*  c #13192E",
"=  c #16182C",
"-  c #14192E",
";  c #15192E",
":  c #16192E",
">  c #17192E",
",  c #18182E",
"<  c #18192F",
"1  c #1B1931",
"2  c #1E1935",
"3  c #2A182F",
"4  c #37182F",
"5  c #201930",
"6  c #231939",
"7  c #25193C",
"8  c #331935",
"9  c #3E1938",
"0  c #4B183B",
"q  c #1A1947",
"w  c #1E1947",
"e  c #1F1947",
"r  c #201947",
"t  c #211947",
"y  c #221947",
"u  c #231947",
"i  c #241947",
"p  c #251947",
"a  c #261947",
"s  c #271947",
"d  c #2B1942",
"f  c #281947",
"g  c #291947",
"h  c #2A1947",
"j  c #2B1947",
"k  c #2C1947",
"l  c #2D1947",
"z  c #2E1946",
"x  c #2E1947",
"c  c #32194A",
"v  c #3A1952",
"b  c #382445",
"n  c #392445",
"m  c #3A2445",
"M  c #3B2445",
"N  c #3C2445",
"B  c #3E2445",
"V  c #3F2445",
"C  c #3C244A",
"Z  c #3D244A",
"A  c #3E244A",
"S  c #3F244A",
"D  c #48194F",
"F  c #43195E",
"G  c #432542",
"H  c #442542",
"J  c #462442",
"K  c #462443",
"L  c #472443",
"P  c #402445",
"I  c #412445",
"U  c #432445",
"Y  c #442445",
"T  c #452445",
"R  c #462444",
"E  c #472444",
"W  c #472446",
"Q  c #482443",
"!  c #492444",
"~  c #4B2445",
"^  c #492446",
"/  c #482447",
"(  c #4A2446",
")  c #40244A",
"_  c #41244A",
"`  c #42244A",
"'  c #43244A",
"]  c #472449",
"[  c #44244A",
"{  c #45244A",
"}  c #46244A",
"|  c #47244A",
" . c #482449",
".. c #4B2448",
"X. c #4A2449",
"o. c #48244A",
"O. c #4A244A",
"+. c #4B244A",
"@. c #4C244A",
"#. c #4D244A",
"$. c #4E244A",
"%. c #4F244A",
"&. c #50244A",
"*. c #51244A",
"=. c #52244A",
"-. c #451A60",
";. c #511B6F",
":. c #541A73",
">. c #571B77",
",. c #791960",
"<. c #821953",
"1. c #951A6C",
"2. c #9C1D8C",
"3. c #9E1D8C",
"4. c #A11C8C",
"5. c #A01D8C",
"6. c #A31C8C",
"7. c #A21D8C",
"8. c #A31D8C",
"9. c #A51C8C",
"0. c #A61C8C",
"q. c #A81C8A",
"w. c #A91C8A",
"e. c #A91D8A",
"r. c #AA1C8A",
"t. c #AB1C8A",
"y. c #AA1D8A",
"u. c #AB1D8A",
"i. c #AA1C8B",
"p. c #AB1C8B",
"a. c #AC1C8A",
"s. c #AD1C8A",
"d. c #AC1D8A",
"f. c #AC1C8B",
"g. c #AD1C8B",
"h. c #AE1C8A",
"j. c #AF1C8A",
"k. c #AE1C8B",
"l. c #A81C8C",
"z. c #A91C8C",
"x. c #AA1C8C",
"c. c #AB1C8C",
"v. c #AC1C8C",
"b. c #AE1C8C",
"n. c #AF1C8C",
"m. c #B11C8A",
"M. c #B01C8B",
"N. c #B21C8A",
"B. c #B21C8B",
"V. c #B31C8B",
"C. c #B41C8A",
"Z. c #B51C8A",
"A. c #B51C8B",
"S. c #B61D8A",
"D. c #B71C8B",
"F. c #B21C8C",
"G. c #B21C8D",
"H. c #B31C8D",
"J. c #B41C8C",
"K. c #B51C8D",
"L. c #B61C8D",
"P. c #B81D8A",
"I. c #B81C8B",
"U. c #B91C8B",
"Y. c #BD1D8A",
"T. c #BF1D8A",
"R. c #B91D8C",
"E. c #B91C8D",
"W. c #BA1D8C",
"Q. c #BB1D8C",
"!. c #BA1C8D",
"~. c #BC1D8C",
"^. c #BD1C8D",
"/. c #BE1C8D",
"(. c #AF1B90",
"). c #B01B90",
"_. c #B11B90",
"`. c #B21B90",
"'. c #B31B90",
"]. c #B51B91",
"[. c #B61B91",
"{. c #B71B91",
"}. c #B31C91",
"|. c #B81B91",
" X c #B91B91",
".X c #BA1B91",
"XX c #BB1B91",
"oX c #BD1B91",
"OX c #BE1B91",
"+X c #BF1B91",
"@X c #C41C8A",
"#X c #C71C8A",
"$X c #C21C8D",
"%X c #C31C8D",
"&X c #C61C8C",
"*X c #C71C8C",
"=X c #C71C8D",
"-X c #CC1C8A",
";X c #CD1C8B",
":X c #CE1C8A",
">X c #CE1C8B",
",X c #C81C8D",
"<X c #CB1C8D",
"1X c #CC1C8C",
"2X c #CD1C8C",
"3X c #CE1C8C",
"4X c #CF1C8C",
"5X c #CE1C8D",
"6X c #D21C8A",
"7X c #D31C8A",
"8X c #D41C8B",
"9X c #D61C8A",
"0X c #D11C8D",
"qX c #D21C8D",
"wX c #D81C8A",
"eX c #D81C8B",
"rX c #C21B91",
"tX c #C41B91",
"yX c #C51B91",
"uX c #C61B91",
"iX c #C91B91",
"pX c #CB1B91",
"aX c #CC1B91",
"sX c #CF1B91",
"dX c #D11A91",
"fX c #D21B91",
"gX c #D41B91",
"hX c #D71A91",
"jX c #D71B91",
"kX c #DA1A91",
"lX c #DF1A91",
"zX c #E21C8A",
"xX c #E51C89",
"cX c #EA1C88",
"vX c #EB1C88",
"bX c #EA1C89",
"nX c #EC1C88",
"mX c #EC1C89",
"MX c None",
/* pixels */
"MXMXMXMXMXMXMXMXMXMXMXMXMXMXMXMXMXMXMXMXMXMXMXMXMXMXMXMXMXMXMXMXMXMXMXMXMXMXMXMXMXMXMXMXMXMXMXMXMXMXMXMXMXMXMXMXMXMXMXMXMXMXMXMX",
"MXMXMXMXMXMXMXMXMXMXMXMXMXMXMXMXMXMXMXMXMXMXMXMXMXMXMXMXMXMXMXMXMXMXMXMXMXMXMXMXMXMXMXMXMXMXMXMXMXMXMXMXMXMXMXMXMXMXMXMXMXMXMXMX",
"m m m m m m b b m m b m m m m m B B B B P P T T T T Q K G G G K K Q T K T T T P P B m B m m m m m b m b m b m m m m m B m B B m ",
"C.B.f.f.f.q.q.0.0.q.q.q.q.f.f.B.C.C.C.Y.@X-X7X7X9XzXvXvXcXcXcXvXnXnXxXwX7X9X-X#XT.S.S.C.B.B.q.f.y.y.y.0.q.q.q.f.q.M.M.M.D.D.P.R.",
"pXuXrX+XXX{.'.'._._.}.MXMXMXMXMXMXMXMXMXMXMXMXMXMXMXMXMXMXMXMXMXMXMXMXMXMXMXMXMXMXMXMXMXMXMXMXMXMX_._._._._.}.XXXXrXtXiXsXjXkXlX",
"MXMXMXMXMXMXMXMXMXMXMXMXMXMXMXMXMXMXMXMXMXMXMXMXMXMXMXMXMXMXMXMXMXMXMXMXMXMXMXMXMXMXMXMXMXMXMXMXMXMXMXMXMXMXMXMXMXMXMXMXMXMXMXMX",
"MXMXMXMXMXMXMXMXMXMXMXMXMXMXMXMXMXMXMXMXMXMXMXMXMXMXMXMXMXMXMXMXMXMXMXMXMXMXMXMXMXMXMXMXMXMXMXMXMXMXMXMXMXMXMXMXMXMXMXMXMXMXMXMX",
"MXMXMXMXMXMXMXMXMXMXMXMXMXMXMXMXMXMXMXMXMXMXMXMXMXMXMXMXMXMXMXMXMXMXMXMXMXMXMXMXMXMXMXMXMXMXMXMXMXMXMXMXMXMXMXMXMXMXMXMXMXMXMXMX",
"MXMXMXMXMXMXMXMXMXMXMXMXMXMXMXMXMXMXMXMXMXMXMXMXMXMXMXMXMXMXMXMXMXMXMXMXMXMXMXMXMXMXMXMXMXMXMXMXMXMXMXMXMXMXMXMXMXMXMXMXMXMXMXMX",
"MXMXMXMXMXMXMXMXMXMXMXMXMXMXMXMXMXMXMXMXMXMXMXMXMXMXMXMXMXMXMXMXMXMXMXMXMXMXMXMXMXMXMXMXMXMXMXMXMXMXMXMXMXMXMXMXMXMXMXMXMXMXMXMX",
"MXMXMXMXMXMXMXMXMXMXMXMXMXMXMXMXMXMXMXMXMXMXMXMXMXMXMXMXMXMXMXMXMXMXMXMXMXMXMXMXMXMXMXMXMXMXMXMXMXMXMXMXMXMXMXMXMXMXMXMXMXMXMXMX",
"MXMXMXMXMXMXMXMXMXMXMXMXMXMXMXMXMXMXMXMXMXMXMXMXMXMXMXMXMXMXMXMXMXMXMXMXMXMXMXMXMXMXMXMXMXMXMXMXMXMXMXMXMXMXMXMXMXMXMXMXMXMXMXMX",
"MXMXMXMXMXMXMXMXMXMXMXMXMXMXMXMXMXMXMXMXMXMXMXMXMXMXMXMXMXMXMXMXMXMXMXMXMXMXMXMXMXMXMXMXMXMXMXMXMXMXMXMXMXMXMXMXMXMXMXMXMXMXMXMX",
"MXMXMXMXMXMXMXMXMXMXMXMXMXMXMXMXMXMXMXMXMXMXMXMXMXMXMXMXMXMXMXMXMXMXMXMXMXMXMXMXMXMXMXMXMXMXMXMXMXMXMXMXMXMXMXMXMXMXMXMXMXMXMXMX",
"MXMXMXMXMXMXMXMXMXMXMXMXMXMXMXMXMXMXMXMXMXMXMXMXMXMXMXMXMXMXMXMXMXMXMXMXMXMXMXMXMXMXMXMXMXMXMXMXMXMXMXMXMXMXMXMXMXMXMXMXMXMXMXMX",
"MXMXMXMXMXMXMXMXMXMXMXMXMXMXMXMXMXMXMXMXMXMXMXMXMXMXMXMXMXMXMXMXMXMXMXMXMXMXMXMXMXMXMXMXMXMXMXMXMXMXMXMXMXMXMXMXMXMXMXMXMXMXMXMX",
"MXMXMXMXMXMXMXMXMXMXMXMXMXMXMXMXMXMXMXMXMXMXMXMXMXMXMXMXMXMXMXMXMXMXMXMXMXMXMXMXMXMXMXMXMXMXMXMXMXMXMXMXMXMXMXMXMXMXMXMXMXMXMXMX",
"MXMXMXMXMXMXMXMXMXMXMXMXMXMXMXMXMXMXMXMXMXMXMXMXMXMXMXMXMXMXMXMXMXMXMXMXMXMXMXMXMXMXMXMXMXMXMXMXMXMXMXMXMXMXMXMXMXMXMXMXMXMXMXMX",
"MXMXMXMXMXMXMXMXMXMXMXMXMXMXMXMXMXMXMXMXMXMXMXMXMXMXMXMXMXMXMXMXMXMXMXMXMXMXMXMXMXMXMXMXMXMXMXMXMXMXMXMXMXMXMXMXMXMXMXMXMXMXMXMX",
"MXMXMXMXMXMXMXMXMXMXMXMXMXMXMXMXMXMXMXMXMXMXMXMXMXMXMXMXMXMXMXMXMXMXMXMXMXMXMXMXMXMXMXMXMXMXMXMXMXMXMXMXMXMXMXMXMXMXMXMXMXMXMXMX",
"MXMXMXMXMXMXMXMXMXMXMXMXMXMXMXMXMXMXMXMXMXMXMXMXMXMXMXMXMXMXMXMXMXMXMXMXMXMXMXMXMXMXMXMXMXMXMXMXMXMXMXMXMXMXMXMXMXMXMXMXMXMXMXMX",
"MXMXMXMXMXMXMXMXMXMXMXMXMXMXMXMXMXMXMXMXMXMXMXMXMXMXMXMXMXMXMXMXMXMXMXMXMXMXMXMXMXMXMXMXMXMXMXMXMXMXMXMXMXMXMXMXMXMXMXMXMXMXMXMX",
"MXMXMXMXMXMXMXMXMXMXMXMXMXMXMXMXMXMXMXMXMXMXMXMXMXMXMXMXMXMXMXMXMXMXMXMXMXMXMXMXMXMXMXMXMXMXMXMXMXMXMXMXMXMXMXMXMXMXMXMXMXMXMXMX",
"MXMXMXMXMXMXMXMXMXMXMXMXMXMXMXMXMXMXMXMXMXMXMXMXMXMXMXMXMXMXMXMXMXMXMXMXMXMXMXMXMXMXMXMXMXMXMXMXMXMXMXMXMXMXMXMXMXMXMXMXMXMXMXMX",
"MXMXMXMXMXMXMXMXMXMXMXMXMXMXMXMXMXMXMXMXMXMXMXMXMXMXMXMXMXMXMXMXMXMXMXMXMXMXMXMXMXMXMXMXMXMXMXMXMXMXMXMXMXMXMXMXMXMXMXMXMXMXMXMX",
"MXMXMXMXMXMXMXMXMXMXMXMXMXMXMXMXMXMXMXMXMXMXMXMXMXMXMXMXMXMXMXMXMXMXMXMXMXMXMXMXMXMXMXMXMXMXMXMXMXMXMXMXMXMXMXMXMXMXMXMXMXMXMXMX",
"MXMXMXMXMXMXMXMXMXMXMXMXMXMXMXMXMXMXMXMXMXMXMXMXMXMXMXMXMXMXMXMXMXMXMXMXMXMXMXMXMXMXMXMXMXMXMXMXMXMXMXMXMXMXMXMXMXMXMXMXMXMXMXMX",
"MXMXMXMXMXMXMXMXMXMXMXMXMXMXMXMXMXMXMXMXMXMXMXMXMXMXMXMXMXMXMXMXMXMXMXMXMXMXMXMXMXMXMXMXMXMXMXMXMXMXMXMXMXMXMXMXMXMXMXMXMXMXMXMX",
"MXMXMXMXMXMXMXMXMXMXMXMXMXMXMXMXMXMXMXMXMXMXMXMXMXMXMXMXMXMXMXMXMXMXMXMXMXMXMXMXMXMXMXMXMXMXMXMXMXMXMXMXMXMXMXMXMXMXMXMXMXMXMXMX",
"MXMXMXMXMXMXMXMXMXMXMXMXMXMXMXMXMXMXMXMXMXMXMXMXMXMXMXMXMXMXMXMXMXMXMXMXMXMXMXMXMXMXMXMXMXMXMXMXMXMXMXMXMXMXMXMXMXMXMXMXMXMXMXMX",
"MXMXMXMXMXMXMXMXMXMXMXMXMXMXMXMXMXMXMXMXMXMXMXMXMXMXMXMXMXMXMXMXMXMXMXMXMXMXMXMXMXMXMXMXMXMXMXMXMXMXMXMXMXMXMXMXMXMXMXMXMXMXMXMX",
"MXMXMXMXMXMXMXMXMXMXMXMXMXMXMXMXMXMXMXMXMXMXMXMXMXMXMXMXMXMXMXMXMXMXMXMXMXMXMXMXMXMXMXMXMXMXMXMXMXMXMXMXMXMXMXMXMXMXMXMXMXMXMXMX",
"MXMXMXMXMXMXMXMXMXMXMXMXMXMXMXMXMXMXMXMXMXMXMXMXMXMXMXMXMXMXMXMXMXMXMXMXMXMXMXMXMXMXMXMXMXMXMXMXMXMXMXMXMXMXMXMXMXMXMXMXMXMXMXMX",
"MXMXMXMXMXMXMXMXMXMXMXMXMXMXMXMXMXMXMXMXMXMXMXMXMXMXMXMXMXMXMXMXMXMXMXMXMXMXMXMXMXMXMXMXMXMXMXMXMXMXMXMXMXMXMXMXMXMXMXMXMXMXMXMX",
"MXMXMXMXMXMXMXMXMXMXMXMXMXMXMXMXMXMXMXMXMXMXMXMXMXMXMXMXMXMXMXMXMXMXMXMXMXMXMXMXMXMXMXMXMXMXMXMXMXMXMXMXMXMXMXMXMXMXMXMXMXMXMXMX",
"MXMXMXMXMXMXMXMXMXMXMXMXMXMXMXMXMXMXMXMXMXMXMXMXMXMXMXMXMXMXMXMXMXMXMXMXMXMXMXMXMXMXMXMXMXMXMXMXMXMXMXMXMXMXMXMXMXMXMXMXMXMXMXMX",
"MXMXMXMXMXMXMXMXMXMXMXMXMXMXMXMXMXMXMXMXMXMXMXMXMXMXMXMXMXMXMXMXMXMXMXMXMXMXMXMXMXMXMXMXMXMXMXMXMXMXMXMXMXMXMXMXMXMXMXMXMXMXMXMX",
"MXMXMXMXMXMXMXMXMXMXMXMXMXMXMXMXMXMXMXMXMXMXMXMXMXMXMXMXMXMXMXMXMXMXMXMXMXMXMXMXMXMXMXMXMXMXMXMXMXMXMXMXMXMXMXMXMXMXMXMXMXMXMXMX",
"MXMXMXMXMXMXMXMXMXMXMXMXMXMXMXMXMXMXMXMXMXMXMXMXMXMXMXMXMXMXMXMXMXMXMXMXMXMXMXMXMXMXMXMXMXMXMXMXMXMXMXMXMXMXMXMXMXMXMXMXMXMXMXMX",
"MXMXMXMXMXMXMXMXMXMXMXMXMXMXMXMXMXMXMXMXMXMXMXMXMXMXMXMXMXMXMXMXMXMXMXMXMXMXMXMXMXMXMXMXMXMXMXMXMXMXMXMXMXMXMXMXMXMXMXMXMXMXMXMX",
"MXMXMXMXMXMXMXMXMXMXMXMXMXMXMXMXMXMXMXMXMXMXMXMXMXMXMXMXMXMXMXMXMXMXMXMXMXMXMXMXMXMXMXMXMXMXMXMXMXMXMXMXMXMXMXMXMXMXMXMXMXMXMXMX",
"MXMXMXMXMXMXMXMXMXMXMXMXMXMXMXMXMXMXMXMXMXMXMXMXMXMXMXMXMXMXMXMXMXMXMXMXMXMXMXMXMXMXMXMXMXMXMXMXMXMXMXMXMXMXMXMXMXMXMXMXMXMXMXMX",
"MXMXMXMXMXMXMXMXMXMXMXMXMXMXMXMXMXMXMXMXMXMXMXMXMXMXMXMXMXMXMXMXMXMXMXMXMXMXMXMXMXMXMXMXMXMXMXMXMXMXMXMXMXMXMXMXMXMXMXMXMXMXMXMX",
"MXMXMXMXMXMXMXMXMXMXMXMXMXMXMXMXMXMXMXMXMXMXMXMXMXMXMXMXMXMXMXMXMXMXMXMXMXMXMXMXMXMXMXMXMXMXMXMXMXMXMXMXMXMXMXMXMXMXMXMXMXMXMXMX",
"MXMXMXMXMXMXMXMXMXMXMXMXMXMXMXMXMXMXMXMXMXMXMXMXMXMXMXMXMXMXMXMXMXMXMXMXMXMXMXMXMXMXMXMXMXMXMXMXMXMXMXMXMXMXMXMXMXMXMXMXMXMXMXMX",
"MXMXMXMXMXMXMXMXMXMXMXMXMXMXMXMXMXMXMXMXMXMXMXMXMXMXMXMXMXMXMXMXMXMXMXMXMXMXMXMXMXMXMXMXMXMXMXMXMXMXMXMXMXMXMXMXMXMXMXMXMXMXMXMX",
"MXMXMXMXMXMXMXMXMXMXMXMXMXMXMXMXMXMXMXMXMXMXMXMXMXMXMXMXMXMXMXMXMXMXMXMXMXMXMXMXMXMXMXMXMXMXMXMXMXMXMXMXMXMXMXMXMXMXMXMXMXMXMXMX",
"MXMXMXMXMXMXMXMXMXMXMXMXMXMXMXMXMXMXMXMXMXMXMXMXMXMXMXMXMXMXMXMXMXMXMXMXMXMXMXMXMXMXMXMXMXMXMXMXMXMXMXMXMXMXMXMXMXMXMXMXMXMXMXMX",
"MXMXMXMXMXMXMXMXMXMXMXMXMXMXMXMXMXMXMXMXMXMXMXMXMXMXMXMXMXMXMXMXMXMXMXMXMXMXMXMXMXMXMXMXMXMXMXMXMXMXMXMXMXMXMXMXMXMXMXMXMXMXMXMX",
"MXMXMXMXMXMXMXMXMXMXMXMXMXMXMXMXMXMXMXMXMXMXMXMXMXMXMXMXMXMXMXMXMXMXMXMXMXMXMXMXMXMXMXMXMXMXMXMXMXMXMXMXMXMXMXMXMXMXMXMXMXMXMXMX",
"MXMXMXMXMXMXMXMXMXMXMXMXMXMXMXMXMXMXMXMXMXMXMXMXMXMXMXMXMXMXMXMXMXMXMXMXMXMXMXMXMXMXMXMXMXMXMXMXMXMXMXMXMXMXMXMXMXMXMXMXMXMXMXMX",
"MXMXMXMXMXMXMXMXMXMXMXMXMXMXMXMXMXMXMXMXMXMXMXMXMXMXMXMXMXMXMXMXMXMXMXMXMXMXMXMXMXMXMXMXMXMXMXMXMXMXMXMXMXMXMXMXMXMXMXMXMXMXMXMX",
"MXMXMXMXMXMXMXMXMXMXMXMXMXMXMXMXMXMXMXMXMXMXMXMXMXMXMXMXMXMXMXMXMXMXMXMXMXMXMXMXMXMXMXMXMXMXMXMXMXMXMXMXMXMXMXMXMXMXMXMXMXMXMXMX",
"aXuX+XXX{.{.'.MXMXMXMXMXMXMXMXMXMXMXMXMXMXMXMXMXMXMXMXMXMXMXMXMXMXMXMXMXMXMXMXMXMXMXMXMXMXMXMXMXMXMXMXMXMX_.[.[.XXXXtXiXsXfXjXjX",
"<X$X/.R.D.M.M.b.z.z.9.2.2.2.2.7.z.M.R.R.R.=X-X5X5X7XMXMXMXMXMXMXMXMXwX5X5X5X=XY.R.R.D.z.7.2.2.2.7.7.9.z.z.b.M.D.R./.$X=X<X5XsX0X",
"%.O.O.O.} } } ' ' ' ) Z Z C Z Z ) ) O.T O.O.O.( ( ( ( ( Q K Q K ( ~ ( T ( ( O.O.[ O.[ ) S C S S S S ) ) [ [ } o.O.O.O.%.%.%.=.=.",
"MXMXMXMXMXMXMXMXMXMXMXMXMXMXMXMXMXMXMXMXMXMXMXMXMXMXMXMXMXMXMXMXMXMXMXMXMXMXMXMXMXMXMXMXMXMXMXMXMXMXMXMXMXMXMXMXMXMXMXMXMXMXMXMX",
"9 8 5 * * * * * * * * > * * * > > * > * * > * > > * > > > > > > > > * > > > > > * > > > > > > > > > > > > > > > > > > < 1 2 6 7 ",
"1.,.D q e e e e r e r r i r r r u u u u u u p u u p p p p p p p p p h h p h p p h h h h h h h h h h x x x x x x x x x c v -.;.>.",
"<.0 3 . . # # # * + @ @ # # # # # # # # # # # # # # # # # # # # # # # # % % # % % # % # # # # % % # # % # # % % % % % % > d F :.",
"8 o X X                 X                                                                                                 X > x ",
"O X                                                                                                                           O ",
"                                                                                                                                ",
"                                                                                                                                "
};
